<svg xmlns="http://www.w3.org/2000/svg" viewBox="0 0 7.04 67.48">
  <defs>
    <style>
      .cls-1 {
        fill: #040000;
      }
    </style>
  </defs>
  <g id="레이어_2" data-name="레이어 2">
    <g id="레이어_1-2" data-name="레이어 1">
      <path class="cls-1" d="M3.29,67.48C2.47,61.86,2,56.24,1.51,50.62S.74,39.37.5,33.75.12,22.51.05,16.89l0-4.22a28.4,28.4,0,0,1,.2-4.22,24.58,24.58,0,0,1,.88-4.22A17,17,0,0,1,3,0H4A17.27,17.27,0,0,1,5.87,4.21a24.42,24.42,0,0,1,.92,4.21A29.79,29.79,0,0,1,7,12.64v4.21c0,5.63-.09,11.25-.28,16.87S6.31,45,5.9,50.59,5.05,61.84,4.29,67.47Z"/>
    </g>
  </g>
</svg>
