<svg xmlns="http://www.w3.org/2000/svg" viewBox="0 0 7.05 100.82">
  <defs>
    <style>
      .cls-1 {
        fill: #040000;
      }
    </style>
  </defs>
  <g id="레이어_2" data-name="레이어 2">
    <g id="레이어_1-2" data-name="레이어 1">
      <path class="cls-1" d="M3.49,100.82c-.83-8.4-1.38-16.8-1.84-25.2S.87,58.83.58,50.43.16,33.63.06,25.23l0-6.3c0-2.1,0-4.21.18-6.31a52.39,52.39,0,0,1,.87-6.3A33.24,33.24,0,0,1,2.91,0h1A33.61,33.61,0,0,1,5.84,6.29a54.74,54.74,0,0,1,.94,6.3C7,14.68,7,16.78,7,18.88l0,6.31q0,12.6-.22,25.2c-.2,8.4-.4,16.81-.79,25.21s-.81,16.81-1.55,25.21Z"/>
    </g>
  </g>
</svg>
