<svg xmlns="http://www.w3.org/2000/svg" viewBox="0 0 208.88 207.95">
  <defs>
    <style>
      .cls-1 {
        fill: #b6f6b2;
      }

      .cls-2 {
        fill: #e3f6a8;
      }

      .cls-3 {
        fill: #bbf8ba;
      }

      .cls-4 {
        fill: #b8eaa8;
      }

      .cls-5 {
        fill: #c1f9c7;
      }

      .cls-6 {
        fill: #edf59f;
      }

      .cls-7 {
        fill: #dff382;
      }

      .cls-8 {
        fill: #a2b540;
      }

      .cls-9 {
        fill: #a4f69f;
      }

      .cls-10 {
        fill: #bbeaac;
      }

      .cls-11 {
        fill: #b4f4a8;
      }

      .cls-12 {
        fill: #a4f29c;
      }

      .cls-13 {
        fill: #bcf2bb;
      }

      .cls-14 {
        fill: #94eb7a;
      }
    </style>
  </defs>
  <g id="레이어_2" data-name="레이어 2">
    <g id="레이어_1-2" data-name="레이어 1">
      <path class="cls-1" d="M137.41,146.52l2.16,4.56,3.56-.78,1.56.71c-1.76,1.52-1.11,4.75-4.35,5.29-.82.13-2,.88-2.2,1.5-.91,3.68-4.08,4.63-7.11,5.81a2.72,2.72,0,0,0-4.75-.44c-3.42,4.25-7.3,3.77-11.56,2.24a8.11,8.11,0,0,0-2.21,0l1.1-2.26c-4.74-1.75-5.45-1.86-4.23-5.48l7.24-2.53-3-3.65c-2.69.72-2.69.72-3.15-1.31l.79-.28c1.83-1,5.42-.7,3.49-4.59-4.22,3-4.45-1.07-6.06-2.77.09-.58.19-1.16.29-1.74l3.83-.05,4.48-9.55-4.51,1.57a19,19,0,0,1-2-3.2c-.85-2.27-1.61-4.2-4.94-3.92-1,.08-2.06-1.64-3.09-2.53,0-1.66,0-3.31.07-5l4.23-1.48,4,.65c-.21-1-.41-2-.65-3.24l3.17-1.66-3.63-2.6,8.49-1.75.68.84c-4.4,4.91,2.37,7.42,2.44,11.53a66.42,66.42,0,0,0-7.74-2.6c-.56-.12-1.58,1.41-3.09,2.86l5.64.29c-.83,1.38-1.46,2.43-2.55,4.22L122,124l0,.54L113,128.82c7.12.67,11.19-1.88,12.83-6.94a22.31,22.31,0,0,1,1.62-2.76c2-3.9,3-4.11,5.53-1l3.66-2.49,1,1.13-7.08,6.2.35.66,6.54-2.28-.22-.52,8.52-.93,2.48,4.32-5.47.11,7.25,5.75c-.32.69-.81,1.72-1.66,3.5,2.2-.33,3.8-.9,5.22-.67s2.46,1.26,3.53,2.89l-6.61.41,2.49-1.3-.67-.82-1.82,2.11c-.51.2-1.41.34-1.46.61-1.1,5.33-6.06,4.41-9.64,5.69l-10.13-1.65-.82.58c1.49,1.66,3,3.32,4.48,5Zm10.24-11.26-.06-.28-.27.22Z"/>
      <path class="cls-1" d="M151.81,53.94c.26-1.31.53-2.63.86-4.3C147,49,150,44.76,149.88,41.75c0-.44,1.31-1.4,2-1.44,5.54-.33,9.65,2.38,11.3,7.38l3.36-1.17c1.22,3,2.38,5.77,3.61,8.78a17.45,17.45,0,0,0-2.83,1,20.75,20.75,0,0,0-2.24,1.85c.78.58,1.49,1.54,2.37,1.67,2.46.37,4.39.73,4,3.9-.1.87,1.59,1.81,2.3,2.82,1,1.46,1.9,3,2.84,4.52l-.72.93,5.58-.26.14.67-5.17,3.2,4.89,3.11L178.11,87l-1.31.07,2.64,4.32-1.37,1,.29.55,3-.87c.59,1.33,1.71,2.7,1.66,4.06,0,1.17-1.3,2.45-2.25,3.5a43.66,43.66,0,0,1-3.72,3.28l-3.79-5.25c-.25-.74-.51-1.47-.77-2.21L175,94.12l-.25-.65L171.9,94c-.16-.48-.33-1-.49-1.46s-.33-1-.5-1.48c-.34-1-.69-2-1-2.93-.6-1.72-1.19-3.45-1.79-5.17,2.45-3.7,1.08-11.78-2.77-14.6-3.35-2.46-5.17-5.14-4-9.54C162.2,55.53,156.06,52.51,151.81,53.94Z"/>
      <path class="cls-1" d="M148.09,106.45c-4.57.1-9.05,1.62-13.5-1.48-3.1-2.16-7.6-2.54-11.34-3.68.24-2.57.39-4.22.59-6.33l7.73-.65-2.46-4.37c3.11-1.77,6.24-3.51,9.33-5.3,3.3-1.9,6.58-3.56,10.16-.58l-1.31,5.29,6.66,1c-1.61,2.21-.18,3.79,1,5.43-1.9,2.21-3.95,4.32-5.63,6.66C148.54,103.56,148.48,105.11,148.09,106.45Z"/>
      <path class="cls-1" d="M37.25,74.07a31.91,31.91,0,0,1-3.17,2.77c-1.15.77-2.71,1.94-3.7,1.69s-1.79-2.09-1.8-3.27a10.72,10.72,0,0,1,4.25-8.66,2.66,2.66,0,0,0,1-2c-1-6,2-9.07,7.88-10.71,3.07-.86,5.94-2.42,8.91-3.67l.67,1.12-3.51,6.16,4.5.85c-1.1,3.1-2.17,6.09-3.23,9.07l-2.35.82c-.64-.25-1.5-.89-1.9-.68a37.65,37.65,0,0,0-5.64,3.54c-.68.53-.78,1.73-1.14,2.63C37.76,73.86,37.51,74,37.25,74.07Z"/>
      <path class="cls-2" d="M126.47,4.16l-7.55,3.43-.75.21c-.22-1-.44-2-.51-2.34l-8.21-1.67-3.74,1.66L104.3,0,121,1Q123.73,2.56,126.47,4.16Z"/>
      <path class="cls-3" d="M40.71,78.31,47.57,71l5,6.49c-1.66,1.43-3.22,3-5,4.19a2.92,2.92,0,0,1-2.42-.29C43.59,80.51,42.17,79.36,40.71,78.31Z"/>
      <path class="cls-3" d="M45.33,34.07c.07-2.23-3.7-4.48.3-6.7l6.18,1.53Z"/>
      <path class="cls-4" d="M92.9,120.84a.61.61,0,0,1,0,.66l-1.82.64L80.66,120h0l-2.32-1.46c.13-.32.25-.63.38-.94Z"/>
      <path class="cls-3" d="M38,73.77c.36-.9.46-2.1,1.14-2.63A37.65,37.65,0,0,1,44.8,67.6c.4-.21,1.26.43,1.9.68C45.3,72.31,41.52,72.83,38,73.77Z"/>
      <path class="cls-3" d="M155,95.8c-1.18-1.64-2.61-3.22-1-5.43l1.54,2,4.62-.66.25.85Z"/>
      <path class="cls-3" d="M168.09,83c.6,1.72,1.19,3.45,1.79,5.17C165.8,86.9,165.26,85.34,168.09,83Z"/>
      <path class="cls-3" d="M32.37,102.85,34,99.54a10.68,10.68,0,0,1,1.73,1.11,25.7,25.7,0,0,1-1.89,2.94Z"/>
      <path class="cls-3" d="M171.9,94l2.89-.53.25.65-2.59,1.36-1.37-.33C171.36,94.77,171.63,94.38,171.9,94Z"/>
      <path class="cls-3" d="M49.8,84.92l.56.3a3.64,3.64,0,0,1-.4.48.47.47,0,0,1-.31-.11A5.57,5.57,0,0,1,49.8,84.92Z"/>
      <path class="cls-3" d="M170.91,91.06c.17.5.34,1,.5,1.48C171.25,92.05,171.08,91.56,170.91,91.06Z"/>
      <path class="cls-1" d="M136.16,6.55c-2.65,1.06-5.22,1.75-7.28-.8C131.68,3.75,133.67,6.68,136.16,6.55Z"/>
      <path class="cls-5" d="M178.93,149.39l-.54,1c-1-.54-2-1.08-3.3-1.72l-1.44,2.53c-2.27.64-3.86,1.39-5.46,1.44a11.38,11.38,0,0,1-4.42-1.07c-2.18-.87-3.71-1.47-6,.83-3,3.07-7,5.3-11.42,8.48-.19-2.25-.28-3.24-.36-4.23l-1.09-.33-3.24,7.07,11.39-4c-2.9,4.95-8.15,7-12.21,5.62-.95-.32-2.43-.53-3.14-.06-3,2-4.8.34-6.68-1.38,3-1.18,6.2-2.13,7.11-5.81.16-.62,1.38-1.37,2.2-1.5,3.24-.54,2.59-3.77,4.35-5.29l-1.56-.71a7.72,7.72,0,0,1,1.24-2.54,27.36,27.36,0,0,1,3.63-2.43c3.7-.22,7.74.4,11-.9,3.5-1.41,5.47-1.06,7.83,1.41-.08-1-.15-2-.2-2.6,1.78.25,4.12,1.31,5.35.59,1.58-.93,2.27-3.29,3.48-5.26l1.41,2.92,5.42-.84c-1.28,2.59-2.22,4.31-3,6.09A10.47,10.47,0,0,0,178.93,149.39Z"/>
      <path class="cls-1" d="M80.66,120c.78,1,1.54,2,2.36,3s1.61,1.76,2.83,3.08l1.9-.18,1,.79c-7.49,2.15-10.32,6.6-7.47,14.36l-8-6.83-.85.76,4.89,9.79c-2.84-.58-4.66-1.51-6-1.05-1.09.39-1.6,2.44-2.52,4L66,146.35l-2,7.88-4.75-5.51c2-2.15,4.43-4.57,6.63-7.16,3.28-3.85,3.17-4.39-1-7.31l3.48-2.07c-.69-2.7-1.36-5.28-1.84-7.17,3.68-5.44,9.18-4.2,14.07-5Z"/>
      <path class="cls-5" d="M109,140.75c-.1.58-.2,1.16-.29,1.74-3.24.95-6.31,2.1-7.52,6.16l4.59,1.59c-2.21,2.54-4.38,4.09-7.46,1.55-.11-.08-.22-.21-.34-.21-4.26-.21-6.9-1.9-6.38-6.41.15-1.32.38-2.64.6-4a33.09,33.09,0,0,1,.63-3.27c.27-1,.7-2,1.06-2.94l1.2.36,1.71,4.89,1-.09c0-1.83.08-3.66.11-5.49l1.35-.12c.45,1,.9,1.94,1.56,3.38l6-4.34c-.39,1.92-.64,3.19-.93,4.62Z"/>
      <path class="cls-5" d="M55,117.43c-.63-.47-1.23-1-1.88-1.41-1.9-1.27-3.81-2.52-5.72-3.78l19.66,4c-1.7,2-3.31,4.15-5.13,6.08a12.63,12.63,0,0,1-2.66,1.79Z"/>
      <path class="cls-6" d="M118.73,189.47c-6.65-6.23-13.29-12.48-20-18.68a17.63,17.63,0,0,0-2.61-1.73l-3.21-5.58.8-.53c2.63,2.5,5.22,5,7.9,7.49,5.54,5.09,11.15,10.12,16.65,15.25a14.61,14.61,0,0,1,2,3.18Z"/>
      <path class="cls-7" d="M59.87,186.85c-.47-.77-1.45-1.59-1.33-2.28.91-5-.71-9.4-2.54-13.8l-2.91-3.86,1-.42c5.3,3.24,6.47,8.59,7.07,14C61.38,182.54,60.34,184.73,59.87,186.85Z"/>
      <path class="cls-5" d="M47.42,112.29l-6.47.14.06-.28-.06.28-2.35.82c-2.29-1.18-4.6-4.14-6.41.27l-3.86-5.33c3.51.53,7.06.91,10.52,1.64C41.76,110.44,44.57,111.46,47.42,112.29Z"/>
      <path class="cls-8" d="M54.09,166.49l-1,.41-9.65-6.75-1,1.79C47.34,161.06,50.86,163.42,54.09,166.49Z"/>
      <path class="cls-1" d="M191.06,96.87c-1.25,3.82-.62,8.23-5.6,9.9-.77.26-1.13,1.74-1.72,2.72-3.08.54-6.06.67-6.81-4.36l10.57-3.69-1.79-2.71Z"/>
      <path class="cls-1" d="M169.31,48c.12-1.47.22-2.72.3-3.7l-5.47-1.53,9.21-3.21c-.09.49-.3,1.74-.68,3.9,1.46-1.29,2.19-2,3-2.62s1.36-1,1.74-1.35l3.41,4.5Z"/>
      <path class="cls-2" d="M133,146.38l-4.48-5,.82-.58,10.13,1.65-1.29,1.27-1.5.56c-.27.06-.53.14-.79.22l-1.38,1.34Z"/>
      <path class="cls-5" d="M133.35,11.36,131,15.59l-6.2-5.8.87-1.39Z"/>
      <path class="cls-1" d="M106.08,187.89c-.71,3.63-1.24,6.31-1.77,9l-.88.1a18.6,18.6,0,0,0-.45-3.47,37.34,37.34,0,0,0-2.11-4.35Z"/>
      <path class="cls-9" d="M191.48,130.82c-.7.41-1.4.83-2.13,1.18a3.07,3.07,0,0,1-.54-.79c.6-.53,1.26-1,1.91-1.47Z"/>
      <path class="cls-5" d="M174.75,104.29l-3.52.47-.18-.92,3.61-.73Z"/>
      <path class="cls-5" d="M171.05,111.66l2.68-.56,0,1.18-2.72-.62Z"/>
      <path class="cls-1" d="M136.64,144.29l1.5-.56c1.58,1.3,1.18,2.2-.73,2.79Z"/>
      <path class="cls-1" d="M134.84,8.93l.84.15a3.42,3.42,0,0,1-.44.9c-.08.09-.45,0-.7-.07Z"/>
      <path class="cls-5" d="M134,13.46l.6.18a3.51,3.51,0,0,1-.33.52.5.5,0,0,1-.32-.08A4.44,4.44,0,0,1,134,13.46Z"/>
      <path class="cls-3" d="M136.64,144.29l.77,2.23-4.45-.14,1.51-.53,1.38-1.34C136.11,144.43,136.37,144.35,136.64,144.29Z"/>
      <path class="cls-3" d="M150.53,136.16l1.82-2.11.67.82-2.49,1.3Z"/>
      <path class="cls-10" d="M18.38,161.93S-5.17,127.79,1.05,97s17.49,7.67,17.49,7.67l1.12,56.84Z"/>
      <path class="cls-1" d="M135.85,144.51l-1.38,1.34Z"/>
      <path class="cls-1" d="M89.72,173.42c-4.4-2.16-6.8-.58-9,3.48-1.23,2.26-4.55,3.45-7.15,4.62-.64.28-2.08-1.81-3.29-2.08s-2.57.39-3.86.65a13,13,0,0,0,1.28,3.18,17.93,17.93,0,0,0,2.22,2.36l-6.6-1.23-11.38.79-3.73,4.48,2.26,3.45L74,202.91l5.48,1.14,1.14.54c3.07.48,6.13,1.18,9.21,1.41,6.1.47,12.45-.35,18.24,1.26,7.19,2,13.21-.94,19.72-1.92q-3.27-6.39-6.55-12.76C114.1,185.35,107,178.1,99.84,170.9a21.74,21.74,0,0,0-2.77-2l-5.31.8C91.31,170.5,90.58,171.83,89.72,173.42ZM73.22,186a17.18,17.18,0,0,1,2.88.74l-3.49-.65A1.11,1.11,0,0,1,73.22,186ZM95.08,172.4l0,.36-.26-.26Z"/>
      <path class="cls-11" d="M14,149.07l.57,1.47c1.16,2.17,2.32,4.33,3.46,6.5a31.52,31.52,0,0,0,2.11,4.28l-.82.28s-8.43-15.06-.95.33,30.46,29.63,30.46,29.63l-1.69-7.88L37.25,175l-.07-.08L37,174.8l-12.51-11a15.59,15.59,0,0,1-1.61-3.11c-1-2.87-1.23-6.06-1.79-9.11-2.56-.13-5-.38-5.56-3.43a7.52,7.52,0,0,0-1.47,0C14.06,148.48,14,148.77,14,149.07Z"/>
      <path class="cls-1" d="M55.25,190.94l-.54-.57c-1.5-.93-4.05-1.62-4.31-2.83-.68-3.25-2.44-1.19-3.85-1.06a1.52,1.52,0,0,1-.39-.52c-1.69-2.18-3.34-4.38-5.08-6.52-1.25-1.55-2.6-3-3.9-4.52a21.31,21.31,0,0,1,.34-4.54,22.9,22.9,0,0,1,2.12-4.15l1.2.36a51.67,51.67,0,0,0,1.84,6.94A3.25,3.25,0,0,0,45.54,175c3.56-1.19,7-2.77,10.46-4.21,1.83,4.4,3.45,8.81,2.54,13.8-.12.69.86,1.51,1.33,2.28l-1,2.88-2.84,1.61Z"/>
      <g>
        <path class="cls-12" d="M140.65,34.27s0-.09,0,0Z"/>
        <path class="cls-12" d="M118.92,7.59l3.48,3.27,2.68,5.94c-3,2-1.57,4,2.42,6.14l-7.49.79,3,4.06-4.58,2.46,2,2.43-3.48,3.41c6.63-2.11,17.1,2.75,17.13,8.15,1.07.36,2.14.7,3.25,1.06l-6.34,11c3.24.36,5.82,1.18,8.24.8,4.25-.66,8.4-2.06,12.59-3.15.26-1.31.53-2.63.86-4.3C147,49,150,44.76,149.88,41.75c0-.44,1.31-1.4,2-1.44,5.54-.33,9.65,2.38,11.3,7.38l3.36-1.17c1.22,3,2.38,5.77,3.61,8.78a17.45,17.45,0,0,0-2.83,1,20.75,20.75,0,0,0-2.24,1.85c.78.58,1.49,1.54,2.37,1.67,2.46.37,4.39.73,4,3.9-.1.87,1.59,1.81,2.3,2.82,1,1.46,1.9,3,2.84,4.52l-.72.93,5.58-.26c0,.22.09.45.14.67l-5.17,3.2c2,1.27,3.44,2.19,4.89,3.11L178.11,87l-1.31.07,2.64,4.32-1.37,1,.29.55,3-.87c.59,1.33,1.71,2.7,1.66,4.06,0,1.17-1.3,2.45-2.25,3.5a43.66,43.66,0,0,1-3.72,3.28l-3.79-5.25c-7.06.83-7.16-4.82-8.87-9-4.39,1.75-.35,3.5-.34,5l-3.74,1.75c.08.27.16.54.23.81l3.29.58,1.79,1c-1,.9-2.07,1.8-3.09,2.71-2.51,2.24-1.67,3.68,1.14,4.42,3.47.91,7,1.65,9.88,2.32l-2.45,4.36h0c-1.94.73-3,1.58-1.87,3.83,1.61,3.12.58,4.36-2.41,4.58-.31-1.8,0-4-.94-4.66-1.74-1.18-4.14-1.77-6.21.45a31.44,31.44,0,0,1-4,3c-.22-1.43-.35-2.21-.57-3.62a41.6,41.6,0,0,1-3.53,3.53c-2.59,2-5.79-.17-4.63-3.33.55-1.49,2.42-2.58,4.09-4.26,0-.16-.76-1.37-.44-2.3.85-2.55-1.38-1.9-2.45-2.47-4.57.1-9.05,1.62-13.5-1.48-3.1-2.16-7.6-2.54-11.34-3.68.24-2.57.39-4.22.59-6.33l7.73-.65-2.46-4.37c-2,.79-3.69,1.47-5-1.15-1.14-2.25-3.39-2.09-5.51-.62,1.24,4.6,1.1,4.88-3.87,5.2-2,.13-4.11-.49-6.13-.25-1.26.15-2.48,1.19-3.64,1.95a14.48,14.48,0,0,0-1.81,1.7A11.58,11.58,0,0,1,101.57,95c-1-1.81-1.86-3.68-3-5.94-1.76,2.91-.31,9.41,1.88,12.35l-6.12,8.5c3.6-1.06,6.22-1.91,8.87-2.61a4.12,4.12,0,0,1,5,5.14c-.08.27-.62.43-1.16.77l-.68-2c-1.31,2.34-7.18,2.62-3.59,6.89l4.23-1.48,4,.65c-.21-1-.41-2-.65-3.24l3.17-1.66-3.63-2.6,8.49-1.75.68.84c-4.4,4.91,2.37,7.42,2.44,11.53a66.42,66.42,0,0,0-7.74-2.6c-.56-.12-1.58,1.41-3.09,2.86l5.64.3-2.55,4.21L122,124l0,.54L113,128.82c7.12.67,11.19-1.88,12.83-6.94a22.31,22.31,0,0,1,1.62-2.76c2-3.9,3-4.11,5.53-1l3.66-2.49,1,1.13-7.08,6.2c.12.22.24.44.35.66l6.54-2.28c-.08-.17-.15-.35-.22-.52l8.52-.93,2.48,4.32-5.47.11,7.25,5.75c-.32.69-.81,1.72-1.66,3.5,2.2-.33,3.8-.9,5.22-.67s2.46,1.26,3.53,2.89l-6.61.41h0c-.51.2-1.41.34-1.46.61-1.1,5.33-6.06,4.41-9.64,5.69l-1.29,1.27c1.58,1.3,1.18,2.2-.73,2.79l2.16,4.56,3.56-.78a7.72,7.72,0,0,1,1.24-2.54,27.36,27.36,0,0,1,3.63-2.43c3.7-.22,7.74.4,11-.9,3.5-1.41,5.47-1.06,7.83,1.41-.08-1-.15-2-.2-2.6,1.78.25,4.12,1.31,5.35.59,1.58-.93,2.26-3.29,3.48-5.26l1.41,2.92,5.42-.84c-1.28,2.59-2.22,4.31-3,6.09a10.47,10.47,0,0,0-.39,2.65l7.29,1.43,4.16,3.65h0c0-1.32,0-2.63,0-4.43,1.19-1.06,3.48-2.54,4.89-4.57.56-.81-.84-2.8-1.23-3.92a55.9,55.9,0,0,1,2.31-6.94c.56-1.17,2-2,3.91-3.75l-7.22.35-.21-.89,5.17-1.8c0-.45.06-.9.08-1.35l-8.27-.35-2.74-3.38-1.83,5.44c-5.79,3.33-7.27-3.25-11.93-4.69,3.65-5.77,7.92-10.4,14.74-12.58-.2-3.53,2.62-7.79,5.55-7.49,1.29.14,2.27,2.32,3.54,3.75l6.55-1c-.22-.74-.43-1.47-.65-2.2l-3.13-.93,2.87-1.43.76,1.4s5.49,30.92,5.34-2.92-13.63-48.2-19.47-58.87-32-28-32-28l-2.88-2.18s-.94.33,1.65,4.73a14.84,14.84,0,0,1,1.64,3.11l-.29-.2h0c1.4,3.6-.06,5.54-3.73,7.29-1.89.9-3,3.62-4.16,5.64-.41.7,0,1.78-.07,2.69-.3,5.36-.43,5.59-5.86,4.56-2.62-.5-5.06-1.78-7.58-2.7l.43-1.12c1.31-.46,2.62-.91,3.92-1.38-1.23-1.44-2.06-3.07-3.41-3.65s-3.36-.1-5.53-.07L136.3,26l-8.52-2.06,10.54-10.45.18.3L141,9.53l-1.38-.92-2.13-1-1.31-1.1c-2.65,1.06-5.22,1.75-7.28-.8l-2.41-1.59Zm72.56,123.23c-.7.41-1.4.83-2.13,1.18a3.07,3.07,0,0,1-.54-.79c.6-.53,1.26-1,1.91-1.47Zm-20.25-26.06-.18-.92,3.61-.73.09,1.18Zm-.17,6.9,2.67-.56c0,.39,0,.78,0,1.18Zm14.4-4.89c-.77.26-1.13,1.74-1.72,2.72-3.08.54-6.06.67-6.81-4.36l10.57-3.69-1.79-2.71,5.35-1.86C189.81,100.69,190.44,105.1,185.46,106.77Zm1.08-26.28L183.65,76l4.42-.62,1.23,2.26C188.54,78.32,187.77,79.23,186.54,80.49Zm-14-33.59L169.31,48c.12-1.47.22-2.72.3-3.7l-5.47-1.53L169.31,41Zm-37.9-33.26a3.51,3.51,0,0,1-.33.52.5.5,0,0,1-.32-.08,4.44,4.44,0,0,1,0-.62Zm1-4.56a3.42,3.42,0,0,1-.44.9c-.08.09-.45,0-.7-.07l.3-1Zm-2.33,2.28L131,15.59l-6.2-5.8.87-1.39Z"/>
        <path class="cls-12" d="M140.65,34.27l0,0-.15.05.11.13A1.22,1.22,0,0,1,140.65,34.27Z"/>
      </g>
      <path class="cls-13" d="M128.43,5.42c2.17,1.83.38-.61,1.32-.93s3.82,1.84,3.82,1.84l7,3.83-2.11,3.6-.18-.3L127.78,23.91,136.3,26l-4.77,4.66c2.17,0,4.13-.53,5.53.07s2.18,2.21,3.41,3.65c-1.3.47-2.61.92-3.92,1.38l-.43,1.12c2.52.92,5,2.2,7.58,2.7,5.43,1,5.56.8,5.86-4.56.05-.91-.34-2,.07-2.69,1.19-2,2.27-4.74,4.16-5.64,3.67-1.75,5.13-3.69,3.73-7.29,0,0,1.19-1.68-4.27-8.25s-22.88-7.91-22.88-7.91l-3.16,0S126.26,3.58,128.43,5.42Zm12.22,28.85c0-.09,0,0,0,0Z"/>
      <path class="cls-1" d="M188.05,111.62c-6.82,2.18-11.09,6.81-14.74,12.58,4.66,1.44,6.14,8,11.93,4.69l1.83-5.44,2.74,3.38,8.27.35c0,.45-.05.9-.08,1.35l-5.17,1.8.21.89,4.85-.23c-.29.88-.58,1.78-.87,2.71a4,4,0,0,0-.67.92,55.9,55.9,0,0,0-2.31,6.94,5.43,5.43,0,0,0,.32.73c-.63,2.05-1.22,4.06-1.76,6-.84.7-1.66,1.3-2.22,1.8,0,1.79,0,3.11,0,4.42l-.17.13.16-.13-4.16-3.65-7.29-1.43-.54,1-10.49,7.79c-2.9,3.47-4.51,3.73-8.25,1.76-1.08-.57-2.56-.51-3.85-.74-.17.58-.35,1.15-.52,1.73,2.66.65,5.34,2,8,1.79,2.86-.2,5.67-1.8,8.89-2.92-.59,3.38-2,4.54-3.95,3.44-3.77,3.31-6.85,6.71-10.61,9.12s-8.2,3.84-12.05,5.56l7.05,4.92c-.77,1.87-1.3,3.16-1.84,4.45h0c5.15-2,10.22-4.3,15.49-5.93,3.41-1.06,3.82-2.53,2.88-5.35-.4-1.22.13-2.75.24-4.13l1.08-.07,1.43,2.92,8.29.78a55.67,55.67,0,0,0,12.12-16l1-.34s17-30.28,14.91-42.27-5.21-13.59-5.21-13.59l-.2,3.67-5.6.86c-1.27-1.43-2.25-3.61-3.54-3.75C190.67,103.83,187.85,108.09,188.05,111.62Zm2.13,43-.05,0Zm.12,0-.1.14Z"/>
      <path class="cls-5" d="M19.3,104.66c-.53-.59-1.05-1.19-1.57-1.78l11.14-2.13a5.51,5.51,0,0,0-3.64-8.13c-1.25-.26-3.16,1.08-4.44,2.07-.95.73-1.14,2.69-2.07,3-3.84,1.44-2.86,3.19-1,5.21l-10.33-2.7a48.91,48.91,0,0,0,5.42-1c.42-.13.53-1.32.78-2l-2.08-.91c-.85-.61-1.76-1.16-2.54-1.84-3.09-2.7-4.14-7.12-2.35-9.68l3.46,2.77a23.55,23.55,0,0,0,1.18-4.16c.39-4,3-3.72,6.26-3.09-2.85,4.34,5.46,8.64-1.44,13,6.13-1.6,11.14-6.2,17-4.35.71-1.65.92-3.19,1.82-4.09,3.3-3.27,4.16-6.76,2.29-10.75.26-.11.51-.21.77-.3,3.5-.94,7.28-1.46,8.68-5.49l2.35-.82,8-10.2L55.78,57c-.33-1.43-1.42-3.73-.87-4.17,4.2-3.39,1.38-4.32-1.27-6.42-2.87-2.27-4.5-.28-6.62,1l-.75-1c1.63-1.51,3.25-3,5.06-4.72L48,40.58c.12-2.77.12-2.77-5-5.67l2.33-.84,6.48-5.17-6.18-1.53,3.59-5.86a26.9,26.9,0,0,0,5.28-1,40.83,40.83,0,0,0,5.73-3.23l-4-.77C60,14.88,61.62,10.64,66,13.64c-.68.79-1.24,1.46-1.79,2.11a20.77,20.77,0,0,0,3.24,3.42c2.19,1.49,3.62,4.54,7.62,2.65,1.16-.55,3.42,1.12,5.17,1.77-1.1,1-2.22,1.91-3.31,2.88a22.57,22.57,0,0,0-1.48,1.74A39.12,39.12,0,0,1,80.13,27c2-.25,5-1.15,5.91-.25,3.21,3,6.27,1.21,9.44.28s6.29-1.87,9.32-3.09a7.87,7.87,0,0,0,2.85-2.61c2.52-3.24,4.93-6.57,7.63-10.21l-.88-2.54,3.77-.74.75-.21,3.48,3.27,2.68,5.94c-3,2-1.57,4,2.42,6.14l-7.49.79,3,4.06-4.58,2.46,2,2.43-3.48,3.41c6.63-2.11,17.1,2.75,17.13,8.15,1.07.36,2.14.7,3.25,1.06l-6.34,11c3.24.36,5.82,1.18,8.24.8,4.25-.66,8.4-2.06,12.59-3.15,4.25-1.43,10.39,1.59,9.51,4.88-1.17,4.4.65,7.08,4,9.54,3.85,2.82,5.22,10.9,2.77,14.6-2.83,2.38-2.29,3.94,1.79,5.17.34,1,.69,2,1,2.93l.5,1.48c.16.49.33,1,.49,1.46-.27.38-.54.77-.82,1.15l1.37.33c.26.74.52,1.47.77,2.21-7.06.83-7.16-4.82-8.87-9-4.39,1.75-.35,3.5-.34,5l-3.74,1.75.23.81,3.29.58,1.79,1c-1,.9-2.07,1.8-3.09,2.71-2.51,2.24-1.67,3.68,1.14,4.42,3.47.91,7,1.65,9.88,2.32l-2.46,4.36h0c-1.94.73-3,1.58-1.86,3.83,1.6,3.12.57,4.36-2.42,4.58-.31-1.8,0-4-.94-4.66-1.74-1.18-4.14-1.77-6.21.45a31.44,31.44,0,0,1-4,3c-.22-1.43-.35-2.21-.57-3.62a41.6,41.6,0,0,1-3.53,3.53c-2.59,2-5.79-.17-4.63-3.33.55-1.49,2.42-2.58,4.09-4.26,0-.16-.76-1.37-.44-2.3.85-2.55-1.38-1.9-2.45-2.47.39-1.34.45-2.89,1.23-4C151,100.12,153.05,98,155,95.8l5.41-3.19-.25-.85-4.62.66-1.54-2-6.66-1,1.31-5.29c-3.58-3-6.86-1.32-10.16.58-3.09,1.79-6.22,3.53-9.33,5.3-2,.79-3.69,1.47-5-1.15-1.14-2.25-3.39-2.09-5.51-.62,1.24,4.6,1.1,4.88-3.87,5.2-2,.13-4.11-.49-6.13-.25-1.26.15-2.48,1.19-3.64,1.95a14.48,14.48,0,0,0-1.81,1.7A11.58,11.58,0,0,1,101.57,95c-1-1.81-1.86-3.68-3-5.94-1.76,2.91-.31,9.41,1.88,12.35l-6.12,8.5c3.6-1.06,6.22-1.91,8.87-2.61a4.12,4.12,0,0,1,5,5.14c-.08.27-.62.43-1.16.77l-.68-2c-1.31,2.34-7.18,2.62-3.59,6.89,0,1.65,0,3.3-.07,5a20.26,20.26,0,0,0-2.14,1.2c-3.47,2.48-7.39,1.62-9.56-2.13l1.81-.64c1.49,1.67,3.29,3.07,5.46,1.15.78-.69.82-2.56.57-3.75-.14-.66-2-1.64-2.35-1.42a25.65,25.65,0,0,0-3.65,3.36l-14.19-3.25c-13.41-3.19-26.78-6.51-40.24-9.51-6-1.33-12.12-2-18.18-3ZM40.71,78.31c1.46,1,2.88,2.2,4.45,3.11a2.92,2.92,0,0,0,2.42.29c1.77-1.24,3.33-2.76,5-4.19l-5-6.49Zm-8.34,24.54,1.46.74a25.7,25.7,0,0,0,1.89-2.94A10.68,10.68,0,0,0,34,99.54Zm-20-11.49a6.49,6.49,0,0,0,1.81.18c.18,0,.47-.75.37-.85a1.78,1.78,0,0,0-1.17-.6C13.15,90.11,12.9,90.71,12.41,91.36ZM49.8,84.92a5.57,5.57,0,0,0-.15.67.47.47,0,0,0,.31.11,3.64,3.64,0,0,0,.4-.48Z"/>
      <path class="cls-1" d="M13.61,97.18c-.25.7-.36,1.89-.78,2a48.91,48.91,0,0,1-5.42,1l-5.76-1c.13-1.78.27-3.55.41-5.33a1.57,1.57,0,0,0-.13-.71,62.7,62.7,0,0,1,1.35-8c2.66-8.91,5.59-17.74,8.3-26.64a21,21,0,0,0,.36-4.51l1.28-.56c1.72-1.78,3.75-3.39,5.1-5.39,1.84-2.76,2.73-6.13,4.81-8.68,3.44-4.19,7.87-7.68,11.2-11.94,4-5.15,9.76-8.16,15.12-11.13C57.32,12,66.05,9.08,74.51,5.8c3.57-1.39,7.39-2.13,11.1-3.16L87.54,1.2,96.66.3,104.3,0l1.41,5.45,3.74-1.66,8.21,1.67c.07.36.29,1.35.51,2.34l-3.77.74.88,2.54c-2.7,3.64-5.11,7-7.63,10.21a7.87,7.87,0,0,1-2.85,2.61c-3,1.22-6.18,2.16-9.32,3.09s-6.23,2.75-9.44-.28c-1-.9-3.9,0-5.91.25a39.12,39.12,0,0,0-4.65,1.25A22.57,22.57,0,0,1,77,26.47c1.09-1,2.21-1.92,3.31-2.88-1.75-.65-4-2.32-5.17-1.77-4,1.89-5.43-1.16-7.62-2.65a20.77,20.77,0,0,1-3.24-3.42c.55-.65,1.11-1.32,1.79-2.11-4.41-3-6,1.24-9.76,2.88l4,.77a40.83,40.83,0,0,1-5.73,3.23,26.9,26.9,0,0,1-5.28,1l-3.59,5.86c-4,2.22-.23,4.47-.3,6.7L43,34.91c-.57,1.09-1.48,2.14-1.65,3.27C40.87,41.44,39,43,36.05,43c-.92,1.53-1.59,3.85-2.54,4-3.37.52-4.25,2.89-6.24,4.78-2.63,2.52-2.1,4.25-1.82,6.63.19,1.63.37,3.25.63,5.52l-2.29-1.69-5.34,5.92,5.4-.25c-.26,3.47-.51,6.69-.72,9.46l-8.31-1.66c-1.79,1.8-3.16,3.17-4.52,4.55l-1-.69c.27-1.23.53-2.46.8-3.7-1.47.26-2.54.89-2.68,1.65-.46,2.38-.57,4.82-.82,7.23-1.79,2.56-.74,7,2.35,9.68.78.68,1.69,1.23,2.54,1.84Z"/>
      <path class="cls-3" d="M17.74,102.94c-1.88-2-2.86-3.77,1-5.21.93-.35,1.12-2.31,2.07-3,1.28-1,3.19-2.33,4.44-2.07a5.51,5.51,0,0,1,3.64,8.13l-11.14,2.13Z"/>
      <path class="cls-5" d="M12.77,104.5l6.53.16,1,.44,8.11,2.65a54.34,54.34,0,0,1-6.7,3.62c-.5.2-1.62-1.7-2.68-2.23a9.1,9.1,0,0,0-3.11-.38l-1.57-1.9C13.82,106.07,13.3,105.28,12.77,104.5Z"/>
      <path class="cls-3" d="M12.58,113l1.56,2.36c-.78.35-1.84,1.18-2.31,1-2.3-1.07-4.45-2.42-6.65-3.67l-.1-.31-.13-.3.32-1.22,4.32,1v.65l1.05-.3-.13.1,1.35.44Z"/>
      <path class="cls-3" d="M3.62,104c-.15-.56-.31-1.12-.46-1.68l2.31,0c-.11.4-.21.81-.32,1.22Z"/>
      <path class="cls-5" d="M10.84,103.71l-1.05.3v-.65Z"/>
      <path class="cls-3" d="M3.21,102.42,2,101.61Z"/>
      <path class="cls-14" d="M8,143.22l-2.1-5.88c-.34-1-.67-2-1-3,.15-.2.3-.41.44-.62v0c-2.2-2.29-3.61-4.64.32-7.41l2.61,5.87.39,4.19.67,2c.3,1.4.6,2.8.91,4.21Z"/>
      <path class="cls-1" d="M7.71,130.69c-.64-1.48-1.27-3-1.91-4.42a3.65,3.65,0,0,0-.19-.74c0-1.1,0-2.21.08-3.31L10.41,117l-6.52-4.79c-.35-1-.71-2-1.06-3,0-.26,0-.51.06-.76l1.67-1.85-1.06-.09.21-1.86,1.67-.46c2.2,1.25,4.34,2.6,6.65,3.67.47.22,1.53-.62,2.31-1,.53.63,1.05,1.27,1.57,1.9l1.76,5c-5,1.7-6.73,4.43-2.67,9l-3,1,1.38,4a7,7,0,0,0,1.33-1.15,3.12,3.12,0,0,0,.44-1A23.63,23.63,0,0,1,19.32,127,3.62,3.62,0,0,1,21,129.17a2.53,2.53,0,0,1-1.25,2.07,29.64,29.64,0,0,1-4.61,1.25c.31,5.28-.1,5.73-3.63,4.22l.74-1.48-3.69,0-.51-1.45C8,132.76,7.84,131.73,7.71,130.69Zm3.9-20.38a3.22,3.22,0,0,0,.61.16s.21-.24.18-.27a3,3,0,0,0-.46-.41Z"/>
      <path class="cls-2" d="M3.89,112.16,10.41,117l-4.72,5.27L4,115.4c-.28-1-.57-2-.85-3Z"/>
      <path class="cls-14" d="M4,115.4l1.74,6.82c0,1.1-.05,2.21-.08,3.31C3.49,122.44,2.16,119.21,4,115.4Z"/>
      <path class="cls-2" d="M3.5,106.47l1.06.09-1.67,1.85c-.22-.46-.45-.92-.68-1.37Z"/>
      <path class="cls-3" d="M6.64,84.75c.25-2.41.36-4.85.82-7.23.14-.76,1.21-1.39,2.68-1.65-.27,1.24-.53,2.47-.8,3.7l1,.69c1.36-1.38,2.73-2.75,4.52-4.55l8.31,1.66c.21-2.77.46-6,.72-9.46l-5.4.25,5.34-5.92,2.29,1.69c-.26-2.27-.44-3.89-.63-5.52-.28-2.38-.81-4.11,1.82-6.63,2-1.89,2.87-4.26,6.24-4.78,1-.14,1.62-2.46,2.54-4,2.94,0,4.82-1.57,5.3-4.83.17-1.13,1.08-2.18,1.65-3.27,5.11,2.9,5.11,2.9,5,5.67l3.34,1.07c-1.81,1.69-3.43,3.21-5.06,4.72l.75,1c2.12-1.23,3.75-3.22,6.62-1,2.65,2.1,5.47,3,1.27,6.42-.55.44.54,2.74.87,4.17l1.26.26-8,10.2c1.06-3,2.13-6,3.23-9.07l-4.5-.85,3.51-6.16-.67-1.12c-3,1.25-5.84,2.81-8.91,3.67-5.85,1.64-8.87,4.75-7.88,10.71a2.66,2.66,0,0,1-1,2,10.72,10.72,0,0,0-4.25,8.66c0,1.18.9,3,1.8,3.27s2.55-.92,3.7-1.69a31.91,31.91,0,0,0,3.17-2.77c1.87,4,1,7.48-2.29,10.75-.9.9-1.11,2.44-1.82,4.09-5.9-1.85-10.91,2.75-17,4.35,6.9-4.35-1.41-8.65,1.44-13-3.31-.63-5.87-.94-6.26,3.09a23.55,23.55,0,0,1-1.18,4.16Z"/>
      <path class="cls-1" d="M91.38,121.65l-13.76-2.88-24.08-4.89,0,.08c-3.5-1-6.93-2.28-10.5-3-4.23-.9-8.58-1.38-12.88-2a.32.32,0,0,0,.08-.52l-9.93-3.27c7.43,1.21,15,2,22.27,3.68,16.48,3.7,32.86,7.79,49.28,11.73Z"/>
      <path class="cls-3" d="M12.41,91.36c.49-.65.74-1.25,1-1.27a1.78,1.78,0,0,1,1.17.6c.1.1-.19.82-.37.85A6.49,6.49,0,0,1,12.41,91.36Z"/>
      <path class="cls-2" d="M11.55,136.71c.08,1.07.17,2.14.25,3.21l1.53,6.13-2.53-3.32c-.29-.69-.57-1.39-.85-2.08s-.42-1.51-.62-2.26c-.25-1-.49-2.09-.73-3.14l3.69,0Z"/>
      <path class="cls-1" d="M13.33,146.05l-1.53-6.13c1-.36,2.12-.64,3.13-1.09,2.32-1,3.34-.21,4.27,1.87,1.16,2.56,3,4.77,1.42,7.92-.39.76.3,2,.49,3-2.56-.13-5-.38-5.56-3.43a7.52,7.52,0,0,0-1.47,0Z"/>
      <path class="cls-1" d="M55,117.43c-2.26,2.22-3.89,4.82-7.76,5.5-2,.35-3.69,3.3-5.66,5.22l1.84,2.2c-1,2.82-7,1.74-11.83-2.2l3-.08c1.46-2.86,2.68-5.27,4.18-8.23l-2.5-4.16,2.31-2.43,2.35-.82h0l6.47-.14v-.05c1.91,1.26,3.82,2.51,5.72,3.78C53.8,116.46,54.4,117,55,117.43Z"/>
      <path class="cls-1" d="M21.89,132a23,23,0,0,1,2.18.87c2.1,1.11,5.68,2,5.91,3.48.33,2.12-1.68,4.73-3,7a4.79,4.79,0,0,1-3.21-.83c-1.06-1.11-1.52-2.74-2.49-4.67l3-2.79L21,133.17C21.27,132.77,21.58,132.36,21.89,132Z"/>
      <g>
        <path class="cls-3" d="M111.37,162.26c-2.69-1.07-3-1.7-2-4.64l7.24-2.53-3-3.65c-2.69.72-2.69.72-3.15-1.31a3.72,3.72,0,0,1,.48-.41s.2.09.31.13c1.83-1,5.42-.7,3.49-4.59-4.22,3-4.45-1.07-6.06-2.77-3.24.95-6.31,2.1-7.52,6.16l4.59,1.59c-2.21,2.54-4.38,4.09-7.46,1.55-.11-.08-.22-.21-.34-.21-4.26-.21-6.9-1.9-6.38-6.41.15-1.32.38-2.64.6-4a33.09,33.09,0,0,1,.63-3.27c.27-1,.7-2,1.06-2.94l1.2.36,1.71,4.89,1-.09c0-1.83.08-3.66.11-5.49l1.35-.12c.45,1,.9,1.94,1.56,3.38l6-4.34c-.39,1.92-.64,3.19-.93,4.62l3.07,2.54,3.83-.05,4.48-9.55-4.51,1.57a19,19,0,0,1-2-3.2c-.85-2.27-1.61-4.2-4.94-3.92-1,.08-2.06-1.64-3.09-2.53a20.26,20.26,0,0,0-2.14,1.2c-3.47,2.48-7.39,1.62-9.56-2.13L80.66,120c.78,1,1.54,2,2.36,3s1.61,1.76,2.83,3.08l1.9-.18,1,.79c-7.49,2.15-10.32,6.6-7.47,14.36l-8-6.83-.85.76,4.89,9.79c-2.84-.58-4.66-1.51-6-1.05-1.09.39-1.6,2.44-2.52,4L66,146.35c-.65,2.55-1.31,5.08-2,7.88l-4.75-5.51c2-2.15,4.43-4.57,6.63-7.16,3.28-3.85,3.17-4.39-1-7.31l3.48-2.07c-.69-2.7-1.36-5.28-1.84-7.17,3.68-5.44,9.18-4.2,14.07-5l-2.32-1.46-11.24-2.34c-1.7,2-3.31,4.15-5.13,6.08a12.63,12.63,0,0,1-2.66,1.79L55,117.43c-2.26,2.22-3.89,4.82-7.76,5.5-2,.35-3.69,3.3-5.66,5.22l1.84,2.2c-1,2.82-7,1.74-11.83-2.2l3-.08c1.46-2.86,2.68-5.27,4.18-8.23l-2.5-4.16,2.31-2.43c-2.29-1.18-4.6-4.14-6.41.27l-3.86-5.33a.27.27,0,0,0,.07-.43,55.64,55.64,0,0,1-6.7,3.61c-.5.2-1.62-1.69-2.68-2.23a9.1,9.1,0,0,0-3.11-.38l1.76,5c-5,1.7-6.73,4.43-2.67,9l-3,1,1.38,4a7,7,0,0,0,1.33-1.15,3.12,3.12,0,0,0,.44-1A23.63,23.63,0,0,1,19.32,127,3.62,3.62,0,0,1,21,129.17a2.53,2.53,0,0,1-1.25,2.07,29.64,29.64,0,0,1-4.61,1.25c.31,5.28-.1,5.73-3.63,4.22.08,1.07.17,2.14.25,3.21,1-.36,2.12-.64,3.13-1.09,2.32-1,3.34-.21,4.27,1.86,1.16,2.57,3,4.78,1.42,7.93-.39.76.3,2,.49,3,.56,3,.74,6.24,1.79,9.11A16.93,16.93,0,0,0,27.19,167c3.08,2.88,6.63,5.3,10,7.91a21.31,21.31,0,0,1,.34-4.54,22.9,22.9,0,0,1,2.12-4.15l1.2.36a51.67,51.67,0,0,0,1.84,6.94A3.25,3.25,0,0,0,45.54,175c3.56-1.19,7-2.77,10.46-4.21l-2.91-3.86-7.23-5.07c3.21.43,5.81,2.34,8.23,4.65,5.3,3.24,6.47,8.59,7.07,14,.22,2-.82,4.22-1.29,6.34l-1,2.88c-.32.89-.64,1.78-1,2.66.89.28,2.21.28,2.6.86,2.14,3.22,5.67,3.62,9.15,4.2,1.7-2.43,2.38-5.56,6.08-6.61.85-.24,1.87-3.24,1.34-4.15s-2.82-1.41-4.42-1.65c-.7-.1-1.62.82-1.85.94a31.31,31.31,0,0,1-3.42-3.24,10.36,10.36,0,0,1-1.14-2.8c1.25-.26,2.59-.89,3.73-.69s2.49,2,3.11,1.76c2.54-1.11,5.77-2.27,7-4.32,2.26-3.68,4.62-5.16,8.8-3.36L91,169.92l5.14-.86-3.21-5.58.8-.53c2.63,2.5,5.22,5,7.9,7.49,5.54,5.09,11.15,10.12,16.65,15.25a9,9,0,0,1,1.6,2.42l-.73.41c.72.48,2,2.16,4,6.76l4.56,10.06s25.83-8,27.39-9.55,18.18-11.64,17.52-13.53a.32.32,0,0,0-.19-.17,56.08,56.08,0,0,0,7.67-6.57l-8.29-.78-1.43-2.92-1.08.07c-.11,1.38-.64,2.91-.24,4.13.94,2.82.53,4.29-2.88,5.35-5,1.53-9.72,3.64-14.55,5.55l-.44-.85,1.33-3.22-7.05-4.92c3.85-1.72,8.29-3.15,12.05-5.56s6.84-5.81,10.61-9.12c2,1.1,3.36-.06,3.95-3.44-3.22,1.12-6,2.72-8.89,2.92-2.63.18-5.31-1.14-8-1.79.17-.58.35-1.15.52-1.73,1.29.23,2.77.17,3.85.74,3.74,2,5.35,1.71,8.51-1.74H167l0-.25c.3.05.6.11,1.15.24,3.24-2.62,6.74-5.22,10.23-7.81-1-.54-2-1.08-3.3-1.72l-1.44,2.53c-2.27.64-3.86,1.39-5.46,1.44a11.38,11.38,0,0,1-4.42-1.07c-2.18-.87-3.71-1.47-6,.83-3,3.07-7,5.3-11.42,8.48-.19-2.25-.28-3.24-.36-4.23l-1.09-.33-3.24,7.07,11.39-4c-2.9,4.95-8.15,7-12.21,5.62-.95-.32-2.43-.53-3.14-.06-3,2-4.8.34-6.68-1.38a2.72,2.72,0,0,0-4.75-.44c-3.42,4.25-7.3,3.77-11.56,2.24a8.11,8.11,0,0,0-2.21,0l1.1-2.26c-.88-.33-1.63-.59-2.24-.84m42.39,26.51-.91.41-.59-1.14ZM25.86,156.93l-.23.22-.09-.26Zm-1.79-24.11c2.1,1.11,5.68,2,5.91,3.48.33,2.12-1.68,4.73-3,7a4.79,4.79,0,0,1-3.21-.83c-1.06-1.11-1.52-2.74-2.49-4.67l3-2.79L21,133.17c.32-.4.63-.81.94-1.22A23,23,0,0,1,24.07,132.82Z"/>
        <path class="cls-3" d="M118.14,189.08l1-.56C118.29,188,118.14,189.08,118.14,189.08Z"/>
      </g>
      <path class="cls-5" d="M92.9,120.84a25.65,25.65,0,0,1,3.65-3.36c.35-.22,2.21.76,2.35,1.42.25,1.19.21,3.06-.57,3.75-2.17,1.92-4,.52-5.45-1.15A.61.61,0,0,0,92.9,120.84Z"/>
      <path d="M93.83,151.1l.36-.13c.06,0,.12,0,.17-.08s.06-.22.13-.22l.72-.26c.47-.19,1-.34,1.44-.51l2.9-1,5.76-2,11.55-4c3.85-1.33,7.66-2.8,11.49-4.2l5.74-2.11c1.92-.68,3.86-1.31,5.79-2,7.7-2.69,15.36-5.49,23-8.23,3.84-1.37,7.7-2.67,11.57-4l5.79-2c1.94-.63,3.85-1.36,5.82-1.88l.12.34c-1.87.83-3.81,1.45-5.72,2.17l-5.74,2.09c-3.83,1.4-7.66,2.81-11.52,4.13-7.71,2.67-15.44,5.26-23.13,8-1.92.69-3.83,1.41-5.75,2.07l-5.8,1.94c-3.87,1.31-7.76,2.54-11.6,3.91l-11.53,4.07-5.78,2-2.87,1.05c-.48.17-1,.35-1.44.5l-.73.24c0,.05-.16-.06-.24-.09s-.12,0-.18.05Z"/>
      <path d="M105.52,102.22l16.61-5.92,4.16-1.46c1.39-.47,2.76-1,4.19-1.37,2.86-.73,5.45-2.23,8.27-3.08s5.61-1.74,8.39-2.69c1.4-.45,2.79-.94,4.16-1.47s2.68-1.24,4-1.77,2.8-.89,4.17-1.43,2.76-1,4.18-1.41c2.81-.87,5.62-1.71,8.47-2.48v0c-2.71,1.15-5.45,2.23-8.19,3.29-1.36.55-2.76,1-4.16,1.47s-2.74,1.06-4.16,1.45-2.88.67-4.28,1.12-2.79.9-4.17,1.42c-2.77,1-5.5,2.08-8.27,3.07s-5.7,1.5-8.39,2.7c-1.35.6-2.76,1-4.14,1.52l-4.17,1.42-16.72,5.62Z"/>
      <path d="M84.88,136.45c3.61-2.39,7.14-4.88,10.71-7.32s7-5.07,10.57-7.52c7.62-4.14,14.44-9.5,21.9-13.9,1.82-1.15,3.64-2.32,5.41-3.56s3.5-2.54,5.29-3.76c3.59-2.41,7.31-4.61,11-6.82,7.51-4.31,14.15-9.95,21.8-14l.27.42c-6.8,5.39-14.62,9.23-21.55,14.41-3.51,2.54-7,5.08-10.65,7.42-1.83,1.15-3.7,2.23-5.55,3.35s-3.63,2.34-5.42,3.56c-7,5.09-14.63,9.21-21.46,14.56-3.66,2.3-7.44,4.41-11.1,6.71s-7.35,4.56-11,6.91Z"/>
      <path d="M106.67,102.65c-2-.38-3.37-1.65-4.79-2.85s-2.94-2.25-4.4-3.38S94.54,94.17,93,93.11c-.75-.54-1.56-1-2.36-1.47-.4-.24-.8-.48-1.17-.75a2.32,2.32,0,0,1-1-1l.29-.4a2.36,2.36,0,0,1,1.29.58c.37.28.73.58,1.08.88.7.61,1.38,1.24,2.14,1.78,1.47,1.11,3,2.13,4.54,3.19s3,2.12,4.59,3.12S105.68,100.87,106.67,102.65Z"/>
      <path d="M112.19,162l0,.79-.44,0L117.86,138c.62-2,.92-4.16,1.39-6.23.25-1,.57-2,.74-3.1a15.83,15.83,0,0,1,.65-3.13c.57-2,1.12-4.1,1.59-6.18.13-.51.23-1,.33-1.56l.15-.78c.1-.25-.08-.57,0-.81.17-.51.38-1,.52-1.52a13.87,13.87,0,0,0,.35-1.55,63.11,63.11,0,0,1,1.33-6.25,54.92,54.92,0,0,0,1.7-6.15c.43-2.08,1-4.13,1.49-6.2s.94-4.15,1.42-6.22c.86-4.17,2-8.27,3-12.4l3-12.41.13,0-3,12.41c-.95,4.15-1.75,8.33-2.86,12.44-.51,2.07-1.07,4.12-1.54,6.19s-.9,4.16-1.46,6.21a53.33,53.33,0,0,0-1.25,6.26,62.16,62.16,0,0,1-1.62,6.17,14.06,14.06,0,0,0-.39,1.55c-.1.52-.14,1.06-.22,1.59,0,.27-.31.47-.33.74l-.22.77c-.14.51-.29,1-.41,1.54-.51,2.06-.94,4.15-1.36,6.23a15.64,15.64,0,0,1-.82,3.09c-.33,1-.5,2.07-.74,3.1-.51,2.07-1.2,4.09-1.56,6.19l-5.73,24.87-.27,1.17-.17-1.2-.12-.79Z"/>
      <path d="M105.72,101.65c.32,2.54.56,5.09,1,7.62s.4,5.11.71,7.66c.22,1.26.31,2.54.42,3.82s.19,2.55.33,3.83.28,2.55.45,3.82l.25,1.9c0,.65.09,1.28.14,1.92.09,1.28.23,2.55.35,3.83s.37,2.53.52,3.81c.33,2.54.57,5.09.87,7.64s.84,5.06.93,7.63c.09,1.28.13,2.56.23,3.84,0,.64.14,1.27.24,1.9.06.32.09.64.12,1a2.79,2.79,0,0,1-.21,1H112a2.51,2.51,0,0,1-.41-.92c0-.32-.07-.64-.08-1,0-.64-.07-1.28-.16-1.91-.16-1.27-.38-2.54-.56-3.81-.44-2.53-.31-5.12-.65-7.66s-.52-5.1-.71-7.65c-.11-1.28-.12-2.57-.27-3.84s-.27-2.55-.44-3.82c-.08-.63-.13-1.27-.25-1.9l-.15-1.92c-.09-1.28-.18-2.56-.34-3.83s-.31-2.54-.46-3.82-.33-2.54-.38-3.82c-.21-2.56-.64-5.09-.86-7.64s-.41-5.11-.62-7.66Z"/>
      <path d="M105.92,101.93c.61.24,1.22.48,1.85.69a9.14,9.14,0,0,1,1.83.75c.58.31,1.14.67,1.74.95s1.2.56,1.8.81c2.44,1,4.87,2,7.32,3,.62.24,1.22.5,1.85.71s1.27.39,1.88.63a24.93,24.93,0,0,1,3.49,1.87,15.42,15.42,0,0,0,1.77.89,19.74,19.74,0,0,0,1.88.63,24.28,24.28,0,0,1,3.6,1.62,38.52,38.52,0,0,0,7.22,3.22c2.53.81,4.69,2.44,7.19,3.28a62.18,62.18,0,0,1,7.34,3c1.16.63,2.29,1.33,3.46,1.95s2.34,1.21,3.53,1.77h0c-1.21-.51-2.46-.94-3.69-1.42s-2.52-.82-3.77-1.25a62.08,62.08,0,0,1-7.12-3.43c-2.31-1.29-5-1.79-7.27-3.11a38.22,38.22,0,0,0-7.24-3.17,23.75,23.75,0,0,1-3.62-1.58c-.57-.33-1.13-.69-1.73-1a17.15,17.15,0,0,0-1.85-.7,26.74,26.74,0,0,1-3.74-1.32c-.59-.29-1.16-.64-1.73-1s-1.18-.6-1.77-.89c-2.36-1.17-4.76-2.26-7.13-3.4-.6-.28-1.2-.54-1.81-.79s-1.26-.43-1.88-.64a9.78,9.78,0,0,1-1.79-.85c-.57-.33-1.16-.62-1.75-.91Z"/>
      <path d="M116.43,66.29a34.71,34.71,0,0,1,5-1.35,51,51,0,0,1,5.07-1,10.89,10.89,0,0,1,1.28-.14c.42,0,.85-.12,1.28-.19.85-.13,1.71-.19,2.57-.29,1.72-.09,3.45-.06,5.18-.06a49.29,49.29,0,0,1,19.87,5.37A58.46,58.46,0,0,1,173.4,80.7c.57.65,1.11,1.33,1.67,2a24,24,0,0,1,1.6,2l2.59,4.52c.77,1.54,1.76,3,2.48,4.55S183,97,183.56,98.66l1.27,5c.19.84.32,1.69.49,2.53,0,.43.26.83.34,1.25s.08.86.16,1.28c.21,1.71.33,3.42.51,5.13s0,3.44,0,5.17-.38,3.42-.56,5.13-.72,3.36-1.06,5l-1.41,5c-.61,1.61-1.28,3.2-2,4.78-.86,1.5-1.72,3-2.6,4.47a7.81,7.81,0,0,0-.69,1.1l-.73,1.06c-.49.71-1,1.44-1.48,2.12-1.11,1.31-2.18,2.67-3.33,3.95s-2.42,2.45-3.68,3.62-2.64,2.21-4,3.27-2.85,1.92-4.25,2.94a13.87,13.87,0,0,1-2.26,1.26c-.78.37-1.54.78-2.34,1.12-1.62.58-3.22,1.23-4.81,1.9a49.51,49.51,0,0,1-20.36,3.06c-1.73-.15-3.44-.41-5.15-.62s-3.37-.77-5-1.16-3.25-1.16-4.91-1.61l-4.84-1.83c-1.55-.76-3.12-1.51-4.65-2.33-1.35-1.09-2.83-2-4.21-3s-2.66-2.2-3.94-3.36-2.43-2.46-3.57-3.75-2.17-2.68-3.17-4.08-2-2.83-2.89-4.29-1.67-3-2.46-4.54l-2-4.78q-.77-2.48-1.49-5c-.33-1.7-.56-3.41-.88-5.1s-.34-3.44-.55-5.15S81,114.77,81,113a34.15,34.15,0,0,1,.7-5.14c.46-1.67.81-3.35,1.11-5.05s.88-3.34,1.37-5c.64-1.61,1.42-3.15,2.11-4.73.85-1.51,1.63-3.05,2.46-4.57s1.87-2.9,2.87-4.31,2.17-2.69,3.34-4,2.46-2.42,3.75-3.56a60.66,60.66,0,0,1,17.74-10.39Zm.12.33A46.57,46.57,0,0,0,99,77c-1.24,1.18-2.39,2.45-3.59,3.66l-3.25,4c-1,1.39-1.94,2.81-2.92,4.21s-1.69,3-2.48,4.49-1.24,3.18-1.9,4.75l-1.69,4.84a33.45,33.45,0,0,0-1,5c0,.86-.06,1.72-.14,2.56s-.23,1.7-.25,2.55c0,1.7-.16,3.4-.15,5.11l.16,2.56c.08.85.08,1.71.23,2.55.33,1.68.66,3.36,1,5s1,3.28,1.42,4.92L86.39,138c.75,1.53,1.56,3,2.33,4.57s1.84,2.89,2.77,4.33,2.21,2.62,3.31,3.93,2.45,2.39,3.66,3.59,2.65,2.16,4,3.23c2.8,2,5.79,3.57,8.71,5.36,1.54.73,3.08,1.49,4.65,2.17s3.27,1,4.93,1.46,3.36.67,5,.93,3.4.37,5.1.47,3.41.07,5.11,0,3.41-.23,5.1-.42,3.36-.57,5-.89l4.95-1.35c1.6-.63,3.18-1.27,4.74-2,.76-.39,1.49-.84,2.24-1.26a13.57,13.57,0,0,1,2.28-1.16,15.76,15.76,0,0,0,2.2-1.31l2.16-1.4c1.39-1,2.68-2.13,4-3.2s2.44-2.4,3.66-3.61,2.17-2.65,3.26-4,1.86-2.87,2.9-4.25l2.33-4.57c.63-1.59,1.33-3.14,2-4.71s1.16-3.22,1.65-4.86.74-3.35,1-5,.38-3.41.52-5.11.13-3.43.11-5.14-.21-3.43-.43-5.13c-.08-.42-.24-.83-.3-1.25s0-.87-.14-1.29c-.17-.84-.29-1.69-.51-2.52-.52-1.64-1.08-3.26-1.62-4.88-.71-1.57-1.41-3.13-2.07-4.7-.81-1.5-1.48-3.07-2.31-4.57s-2.07-2.73-3.06-4.1l-3.2-4a47.83,47.83,0,0,0-16-12.59A56.93,56.93,0,0,0,136.76,64c-1.7,0-3.41-.14-5.12-.13-.85,0-1.7.13-2.56.15a14.56,14.56,0,0,0-2.56.16c-1.68.37-3.36.69-5.06.94a32.78,32.78,0,0,1-4.9,1.55Z"/>
      <path d="M180.21,140.2c-6.9-5.2-13.75-10.48-20.69-15.64-1.7-1.33-3.46-2.59-5.22-3.84l-2.59-2c-.88-.62-1.82-1.17-2.65-1.86l-1.25-1c-.46-.29-.87-.64-1.3-1-.86-.65-1.71-1.32-2.58-2s-1.74-1.29-2.66-1.86a1.92,1.92,0,0,1-.66-.46l-.62-.53c-.41-.36-.85-.67-1.29-1-1.77-1.24-3.56-2.44-5.26-3.78s-3.32-2.78-5.09-4-3.47-2.58-5.2-3.88-3.47-2.57-5.21-3.85c-3.51-2.53-6.91-5.2-10.35-7.82L97.21,78l.05-.07,10.38,7.76c3.49,2.56,7,5.06,10.43,7.72,1.72,1.3,3.42,2.64,5.17,3.91s3.49,2.55,5.19,3.88,3.52,2.51,5.29,3.75,3.43,2.63,5.12,4c.43.33.86.66,1.31,1l.68.44a2.12,2.12,0,0,1,.64.51c.81.72,1.68,1.36,2.54,2s1.73,1.28,2.61,1.92c.43.32.89.61,1.29,1l1.35.91c.9.6,1.69,1.35,2.54,2l2.6,1.93c1.7,1.34,3.4,2.67,5.16,3.92,6.91,5.19,13.92,10.26,20.86,15.41Z"/>
      <path d="M166.22,156.85l-1.39-11.07-1.51-11.06c-.51-7.43-1.68-14.78-2.35-22.19-.21-1.85-.39-3.7-.64-5.55s-.52-3.68-.74-5.53c-.45-3.69-.77-7.4-1.1-11.1-.62-7.42-1.94-14.75-2.44-22.19l.24,0c1.2,7.35,1.57,14.79,2.65,22.16.52,3.68,1.05,7.36,1.44,11.06.2,1.85.34,3.71.52,5.56s.42,3.69.64,5.54c1,7.37,1.55,14.8,2.73,22.15l1,11.11,1.16,11.1Z"/>
      <path d="M136.18,115a29.81,29.81,0,0,1,3.14.06l3.13.16c2.09.1,4.17.18,6.25.36,4.17.34,8.33.73,12.49,1,4.18.08,8.32.8,12.49,1.08,2.08.15,4.17.24,6.25.41l3.12.24c.52,0,1,.06,1.57.08.26,0,.52,0,.78,0l.39,0s.05.12.08.17.07,0,.1,0h0s-.07,0-.1,0-.08.19-.11.16h-.39c-.26,0-.52,0-.78-.06-.52,0-1-.11-1.56-.14l-3.13-.21c-2.08-.12-4.16-.32-6.24-.47-4.17-.31-8.36-.18-12.52-.69-4.16-.29-8.34-.48-12.5-.74-2.09-.12-4.17-.32-6.25-.52l-3.12-.29a27.22,27.22,0,0,1-3.11-.38Z"/>
      <path d="M136.6,115.46c1.46-1.51,2.88-3.06,4.32-4.59l4.23-4.68c3.18-2.76,5.86-6,8.94-8.89q1.13-1.1,2.19-2.25c.72-.77,1.4-1.58,2.12-2.34,1.45-1.52,3-2.95,4.53-4.39,3.11-2.83,5.68-6.19,8.87-8.95l.18.17c-2.67,3.27-6,5.92-8.73,9.1-1.4,1.57-2.79,3.15-4.27,4.63-.74.75-1.53,1.45-2.28,2.18s-1.49,1.48-2.21,2.25c-2.79,3.15-6,5.91-8.66,9.16l-4.57,4.34c-1.49,1.48-3,2.94-4.48,4.43Z"/>
    </g>
  </g>
</svg>
