<svg xmlns="http://www.w3.org/2000/svg" viewBox="0 0 206.44 209.68">
  <defs>
    <style>
      .cls-1 {
        fill: #f6e786;
      }

      .cls-2 {
        fill: #f6c775;
      }

      .cls-3 {
        fill: #f8ec92;
      }

      .cls-4 {
        fill: #ead57d;
      }

      .cls-5 {
        fill: #f9f29d;
      }

      .cls-6 {
        fill: #f5ba67;
      }

      .cls-7 {
        fill: #f3b24b;
      }

      .cls-8 {
        fill: #b57717;
      }

      .cls-9 {
        fill: #ead683;
      }

      .cls-10 {
        fill: #f4df76;
      }

      .cls-11 {
        fill: #f2de65;
      }

      .cls-12 {
        fill: #f2e797;
      }

      .cls-13 {
        fill: #ebcb44;
      }

      .cls-14 {
        fill: none;
        stroke: #000;
        stroke-miterlimit: 10;
      }

      .cls-15 {
        fill: #d6c051;
      }

      .cls-16 {
        fill: #34260c;
      }

      .cls-17 {
        fill: #f6c16b;
      }

      .cls-18 {
        fill: #3f5118;
      }

      .cls-19 {
        fill: #231606;
      }

      .cls-20 {
        fill: #331c04;
      }

      .cls-21 {
        fill: #2b1603;
      }

      .cls-22 {
        fill: #3f2d15;
      }

      .cls-23 {
        fill: #423122;
      }

      .cls-24 {
        fill: #332618;
      }

      .cls-25 {
        fill: #331d05;
      }

      .cls-26 {
        fill: #2b1c09;
      }

      .cls-27 {
        fill: #fff;
      }
    </style>
  </defs>
  <g id="레이어_2" data-name="레이어 2">
    <g id="레이어_1-2" data-name="레이어 1">
      <path class="cls-1" d="M52.81,121.46l-5,.55c-.06.55-.25,2.08-.44,3.61l-1.18,1.24c-.85-2.16-4.12-2.61-3.56-5.85a3.17,3.17,0,0,0-.69-2.57c-3.18-2.07-3-5.38-3.15-8.62a2.72,2.72,0,0,0,2-4.34c-2.88-4.64-1.16-8.14,1.69-11.66a7.9,7.9,0,0,0,.78-2.07L45,93.53c3.21-3.89,3.55-4.53,6.57-2.19V99L56,97.39c.2-2.79.2-2.79,2.27-2.55v.83c.32,2-1.12,5.36,3.19,4.81-1.46-5,2.47-3.85,4.61-4.81l1.55.85c-.42,1.26-.84,2.51-1.22,3.63L74,107.53v-4.78a18.86,18.86,0,0,1,3.68-.82c2.42-.06,4.49-.14,5.32-3.38.25-1,2.23-1.4,3.41-2.08L91,98.17v4.48l-1.93,3.55,3.28.45c.14.93.31,2.13.52,3.55l3.66-2.58c-.47,3.54-.81,6.07-1.15,8.59l-1,.37c-3.18-5.77-7.78-.2-11.69-1.5a67.83,67.83,0,0,0,5-6.44c.3-.49-.82-2-1.68-3.86-.93,2.25-1.44,3.52-2.14,5.22-1-1.23-1.81-2.17-3.14-3.79-.61,3.1-1.1,5.63-1.6,8.15l-.52-.14c-.31-2.94-.63-5.89-1.07-10-3,6.51-1.9,11.19,2.33,14.4A22.61,22.61,0,0,1,82,121.09c3,3.13,2.89,4.21-.86,5.56.39,1.43.77,2.85,1.15,4.28l-1.4.6-3.52-8.73-.74.12v6.92l.56,0-1.93,8.35-4.89.92L72,133.88l-7.82,4.94-2.75-2.71c-.42,2.18-.4,3.88-1.08,5.15s-2,1.9-3.9,2.38c.6-2.12,1.2-4.25,1.79-6.37.14.92.27,1.84.41,2.77l1-.36-1.39-2.42c0-.54.14-1.44-.1-1.58-4.67-2.79-2.17-7.17-2.19-11q2.45-4.51,4.9-9c-.1-.32-.19-.64-.28-1l-6.19,2.59C53.87,118.69,53.34,120.08,52.81,121.46Zm7.26,13.39.28,0-.12-.32Z"/>
      <path class="cls-1" d="M135.48,165.54l3.78,2.23c2.45-5.15,5.48-.89,8.37,0,.43.12.89,1.69.69,2.39-1.52,5.34-5.43,8.33-10.69,8.24v3.57l-9.48.52a17.39,17.39,0,0,0,0-3,21.77,21.77,0,0,0-1-2.73c-.81.55-2,.9-2.36,1.69-1.16,2.2-2.13,3.9-5,2.49-.78-.39-2.23.89-3.42,1.23-1.71.48-3.46.8-5.2,1.2l-.64-1-1.59,5.35-.68-.08c-.38-1.72-.76-3.43-1.32-5.94l-4.54,3.59-6.75-5.76c.13-.42.25-.84.37-1.26l-5,1.07c0,.12-.24-.76-.53-1.64l-.61.09c0,1-.1,2-.15,3.08-1.46.12-3.11.73-4.38.23-1.1-.43-1.89-2-2.57-3.27a47.66,47.66,0,0,1-1.87-4.59l6.21-1.85h2.33c.15,1,.29,1.93.43,2.89l.71,0,.44-2.91,1.54,0,1.56,0h8.58c2.69,3.54,10.77,4.9,14.71,2.19,3.42-2.35,6.54-3.19,10.32-.63C130.56,174.83,135.43,170,135.48,165.54Z"/>
      <path class="cls-1" d="M87.13,144.74c1.4-4.34,1.45-9.08,5.84-12.26,3.06-2.21,4.91-6.34,7.21-9.49l5.78,2.64c-.6,2.36-1.2,4.66-1.93,7.51l4.94-.88c.64,3.52,1.26,7,1.93,10.55.71,3.74,1.2,7.39-2.8,9.78l-4.56-3-3.16,5.95c-1.55-2.25-3.52-1.42-5.46-.84-1.45-2.52-2.77-5.16-4.43-7.52C89.71,146.11,88.27,145.55,87.13,144.74Z"/>
      <path class="cls-1" d="M154.2,50.75a30.39,30.39,0,0,1-1.57-3.91c-.36-1.34-.95-3.2-.39-4.06s2.57-1,3.69-.62A10.74,10.74,0,0,1,162.71,49a2.63,2.63,0,0,0,1.52,1.59c6,1,7.89,4.9,7.51,11-.2,3.18.34,6.42.54,9.62l-1.28.28c-1.46-1.69-2.93-3.37-4.66-5.36-.86,1.51-1.43,2.49-2.29,4l-7.5-6V61.58c.45-.53,1.34-1.13,1.27-1.57a37.37,37.37,0,0,0-1.48-6.5c-.28-.81-1.39-1.3-2.11-1.94Z"/>
      <path class="cls-2" d="M190.83,158c-.25-2.75-.49-5.51-.74-8.26,0-.26,0-.52,0-.78l2.37.29,4.29-7.2c0-.54-.18-2.11-.34-4.08l5.61.46q-3.21,7.73-6.41,15.44Z"/>
      <path class="cls-3" d="M149.05,52.61l4.62,8.88-7.78,2.58c-.8-2-1.72-4-2.31-6.09-.16-.58.5-1.7,1.07-2.19C146,54.61,147.58,53.65,149.05,52.61Z"/>
      <path class="cls-3" d="M189.3,71.54c2.09.81,5.45-2,6.24,2.5l-3.49,5.32C191,76.44,190.16,74,189.3,71.54Z"/>
      <path class="cls-4" d="M91.71,87.89a.59.59,0,0,1-.61-.24c0-.64,0-1.28,0-1.93q2.73-4.55,5.45-9.11h0l2.14-1.7.76.66Z"/>
      <path class="cls-3" d="M154.23,51.57c.72.64,1.83,1.13,2.11,1.94a37.37,37.37,0,0,1,1.48,6.5c.07.44-.82,1-1.27,1.57C153.21,58.92,154,55.18,154.23,51.57Z"/>
      <path class="cls-3" d="M94.92,154.73c1.94-.58,3.91-1.41,5.46.84l-2.44.78c-.29,1.5-.6,3-.9,4.58l-.88,0C95.75,158.84,95.34,156.78,94.92,154.73Z"/>
      <path class="cls-3" d="M102.72,171.36H97.25C99.76,167.9,101.4,167.91,102.72,171.36Z"/>
      <path class="cls-3" d="M128.63,36.66c.86.87,1.73,1.74,2.59,2.62-.56.44-1.53,1.35-1.62,1.26a26.5,26.5,0,0,1-2.15-2.74Z"/>
      <path class="cls-3" d="M91,171.32l-.44,2.91-.71,0c-.14-1-.28-1.93-.43-2.89.26-.4.52-.79.77-1.19Z"/>
      <path class="cls-3" d="M139.82,59l-.46.43a2.69,2.69,0,0,1-.33-.54s.17-.27.21-.25A4,4,0,0,1,139.82,59Z"/>
      <path class="cls-3" d="M94.14,171.36l-1.56,0Z"/>
      <path class="cls-1" d="M185.39,166.37c-.14-2.85.07-5.51,3.15-6.61C189.5,163.06,186.09,164,185.39,166.37Z"/>
      <path class="cls-5" d="M36.43,159.72l-.78-.83,2.72-2.55-1.92-2.2c.14-2.35,0-4.11.43-5.63a11.5,11.5,0,0,1,2.47-3.82c1.54-1.77,2.61-3,1.19-5.93-1.9-3.88-2.69-8.37-4.25-13.58l4.11,1,.67-.91-5.61-5.39V132c-3.71-4.36-3.88-10-1.28-13.37.61-.8,1.3-2.13,1.09-3-.9-3.5,1.26-4.64,3.5-5.84.12,3.24,0,6.55,3.15,8.62a3.17,3.17,0,0,1,.69,2.57c-.56,3.24,2.71,3.69,3.56,5.85l1.18-1.24c.69.66,1.65,1.18,2,2a26.36,26.36,0,0,1,1.1,4.22c-1,3.57-2.93,7.18-2.77,10.68.17,3.77-.8,5.51-3.91,6.92l2.52.68c-.83,1.59-2.59,3.45-2.32,4.85.35,1.8,2.36,3.22,3.82,5l-3.22.37c-.22,1.22-.47,2.53-1,5.4-2-2.06-3.33-3.52-4.77-4.81A10.87,10.87,0,0,0,36.43,159.72Z"/>
      <path class="cls-1" d="M96.54,76.61c-1.2.41-2.41.79-3.59,1.24s-2.2,1-3.85,1.66l-.45,1.86L87.59,82C88,74.23,84.75,70.1,76.48,70.23l9.09-5.31c-.14-.35-.29-.7-.44-1.05L74.28,65.26c1.48-2.49,3-3.9,3-5.31,0-1.16-1.77-2.31-3-3.71l2.2-2.11L69.7,49.62,76.46,47c1.37,2.6,2.86,5.68,4.58,8.61,2.56,4.37,3.1,4.44,7.22,1.52.28,1.38.54,2.65.8,4l7.38.62c3.92,5.28.94,10.06.11,14.94Z"/>
      <path class="cls-5" d="M67.62,96.52l-1.55-.85c.17-3.37.1-6.64-3.34-9.12l-3,3.81c-1.66-2.93-2.41-5.49,1-7.56.11-.07.27-.14.31-.25,1.6-4,4.06-5.89,8.15-3.91,1.2.57,2.37,1.22,3.55,1.86,1,.54,2,1,2.87,1.68s1.63,1.3,2.43,2l-.74,1H72.11l-.25,1L77,88.05l-.33,1.31-3.7.36,2.1,7.13-4-2.39Z"/>
      <path class="cls-5" d="M107.4,53.25c.65-.43,1.32-.84,1.95-1.31,1.83-1.37,3.64-2.77,5.46-4.15q-5.1,8.64-10.21,17.26c-1.37-2.27-2.82-4.49-4-6.85a12,12,0,0,1-.81-3.09Z"/>
      <path class="cls-6" d="M18.4,89.69C26.48,85.46,34.56,81.25,42.62,77a19.22,19.22,0,0,0,2.49-1.89l6.33-1.19.24.92c-3.23,1.66-6.47,3.28-9.68,5-6.63,3.55-13.22,7.2-19.88,10.7a14.8,14.8,0,0,1-3.67.88C18.43,90.82,18.41,90.25,18.4,89.69Z"/>
      <path class="cls-7" d="M40.26,35c.87-.19,2-.85,2.59-.5C47.26,37,52,36.89,56.71,36.61l4.61-1.48c0,.36,0,.72.06,1.09-4.8,3.93-10.23,3.28-15.56,2.05C43.84,37.81,42.11,36.11,40.26,35Z"/>
      <path class="cls-5" d="M114.76,47.76l2-6.15.24.15-.24-.15V39.12c1.86-1.78,5.42-3,1.85-6.14l6.31-1.89c-1.66,3.14-3.19,6.37-5,9.39C118.37,43,116.49,45.34,114.76,47.76Z"/>
      <path class="cls-8" d="M61.38,36.22c0-.37,0-.73-.06-1.09l9.56-6.88-1.36-1.53C68.74,31.63,65.35,34.18,61.38,36.22Z"/>
      <path class="cls-1" d="M82,188.47c-3.2-2.44-7.57-3.3-7.51-8.54,0-.82-1.27-1.65-2-2.53.51-3.08,1.36-5.94,6.36-5v11.2L82,182.8Z"/>
      <path class="cls-1" d="M135.31,184l3.39,1.49,3.25-4.65v9.74l-3.47-1.91c.74,1.79,1.15,2.71,1.5,3.66s.55,1.63.7,2.09l-5.37,1.73Z"/>
      <path class="cls-2" d="M54.41,117.31l6.19-2.59c.09.32.18.64.28,1q-2.46,4.51-4.9,9l-.78-1.63,0-1.61c0-.27,0-.55,0-.82l-.81-1.75Z"/>
      <path class="cls-5" d="M181.77,162.13l-3.22-3.61,7.52-3.94,1,1.28Z"/>
      <path class="cls-1" d="M104.19,188.35c-.72,3.62-1.24,6.3-1.77,9l-.88.09a19.6,19.6,0,0,0-.45-3.47A37.34,37.34,0,0,0,99,189.6Z"/>
      <path class="cls-1" d="M49.83,177.69c-.15-.8-.32-1.59-.41-2.4a2.92,2.92,0,0,1,.92-.25c.3.74.52,1.52.76,2.29Z"/>
      <path class="cls-5" d="M80.4,170.63c.23-1.16.47-2.32.7-3.48l.93.13c-.16,1.22-.33,2.44-.49,3.66Z"/>
      <path class="cls-1" d="M73.06,198l-2.35-.81,1.91-2.65C72.82,196.11,72.94,197.07,73.06,198Z"/>
      <path class="cls-5" d="M74.64,164.71c-.11.9-.23,1.81-.34,2.71l-1.13-.35,1.48-2.36Z"/>
      <path class="cls-1" d="M55.17,121.47l0,1.61c-1.75,1.06-2.47.38-2.39-1.62Z"/>
      <path class="cls-1" d="M183.57,164.34l-.42.75a3.91,3.91,0,0,1-.7-.71c-.06-.11.19-.42.3-.64Z"/>
      <path class="cls-5" d="M179.55,162.09l-.36.51a4.21,4.21,0,0,1-.38-.48c0-.05.14-.28.18-.27A3.5,3.5,0,0,1,179.55,162.09Z"/>
      <path class="cls-3" d="M55.17,121.47H52.81c.53-1.38,1.06-2.77,1.6-4.15v1.59l.81,1.75C55.21,120.92,55.2,121.2,55.17,121.47Z"/>
      <path class="cls-3" d="M58.27,137.26l1.39,2.42-1,.36c-.14-.93-.27-1.85-.41-2.77Z"/>
      <path class="cls-9" d="M77.44,4s40-11,67,5-13,14-13,14l-54-17.67Z"/>
      <path class="cls-1" d="M55.22,120.65l-.81-1.75Z"/>
      <path class="cls-1" d="M43.11,67.58c3.49-3.45,2.79-6.23-.32-9.67-1.72-1.92-1.76-5.44-2-8.28-.06-.7,2.39-1.37,3.05-2.42s.47-2.55.66-3.86a13.4,13.4,0,0,0-3.43.16,18.88,18.88,0,0,0-3,1.32L41.44,39l3-11-3-5-4,1-17,19-2.87,4.8-.89.9c-1.47,2.74-3.13,5.4-4.37,8.24-2.44,5.6-3.76,11.87-7.19,16.8C.86,79.87,1.66,86.53.44,93l14.21-2C23.82,86.67,33,82.35,42.16,78A21.57,21.57,0,0,0,45,76c.31-1.61.61-3.21,1-5.28ZM36.63,47.84A17.42,17.42,0,0,1,35,50.31l1.76-3.07A1.08,1.08,0,0,1,36.63,47.84ZM42.31,73,42,72.81l.33-.15Z"/>
      <path class="cls-10" d="M91,4.1l-1.59.06c-2.42.38-4.84.77-7.27,1.12a32,32,0,0,0-4.74.59V5s17-3,0-1-38,19-38,19l8,1L58.9,17.51l.1,0,.16-.11,14.48-8.2a14.89,14.89,0,0,1,3.47-.49c3-.05,6.12.83,9.19,1.3,1-2.37,2-4.62,5.07-4.12a7.42,7.42,0,0,0,.48-1.39Z"/>
      <path class="cls-1" d="M37.91,29.26l.73-.32c1.37-1.12,2.86-3.3,4.08-3.14,3.29.43,1.94-1.91,2.27-3.28a1.42,1.42,0,0,1,.62-.2c2.61-.88,5.24-1.72,7.83-2.65,1.87-.67,3.71-1.46,5.56-2.2a20.73,20.73,0,0,1,4.17,1.82,21.91,21.91,0,0,1,3.21,3.37l-.73,1a52.4,52.4,0,0,0-7.15-.55,3.28,3.28,0,0,0-2.32,2.23c0,3.75.32,7.51.53,11.26-4.75.28-9.45.35-13.86-2.14-.61-.35-1.72.31-2.59.5l-2.4-1.86c-.2-1.07-.39-2.14-.59-3.21Z"/>
      <g>
        <path class="cls-11" d="M157.73,161.48s.08.07,0,0Z"/>
        <path class="cls-11" d="M190.09,149.75,185.85,152l-6.5.58c-.93-3.53-3.23-2.8-6.59.26.73-3.13,1.17-5,1.72-7.34l-4.82,1.5c-.28-1.78-.53-3.35-.82-5.13l-3,1.07-2.07-4.41c-.19,7-8.22,15.25-13.34,13.5l-2.07,2.72-8.28-9.61c-1.41,2.94-3,5.11-3.48,7.52-.77,4.23-.82,8.61-1.17,12.92l3.78,2.23c2.45-5.15,5.48-.89,8.37,0,.43.12.89,1.69.69,2.39-1.52,5.34-5.43,8.33-10.69,8.24v3.57l-9.48.52a17.39,17.39,0,0,0,0-3,21.77,21.77,0,0,0-1-2.73c-.81.55-2,.9-2.36,1.69-1.16,2.2-2.13,3.9-5,2.49-.78-.39-2.23.89-3.42,1.23-1.71.48-3.46.8-5.2,1.19l-.64-1-1.59,5.35-.68-.08c-.38-1.72-.76-3.43-1.32-5.94l-4.54,3.59-6.75-5.76c.13-.42.25-.84.37-1.26l-5,1.07-.53-1.64-.61.09c0,1-.1,2-.15,3.08-1.46.12-3.11.73-4.38.23-1.1-.43-1.89-2-2.57-3.27a47.66,47.66,0,0,1-1.87-4.59l6.21-1.85c1.53-6.94,6.9-5.18,11.46-5.4-.2-4.72-3.19-1.48-4.63-2-.16-1.52-.29-2.81-.43-4.1l-.84,0-1.63,2.92-1.57,1.34c-.52-1.27-1-2.55-1.54-3.81-1.29-3.11-2.93-2.79-4.55-.38-2,3-3.86,6.06-5.44,8.57l-3.31-3.76h0c-.05-2.07-.5-3.37-3-3-3.47.48-4.32-.9-3.54-3.8,1.8.31,3.82,1.33,4.72.66,1.68-1.26,3-3.33,1.62-6a32.2,32.2,0,0,1-1.56-4.77l3.61.64a41.77,41.77,0,0,1-2.17-4.48c-1-3.11,2.07-5.42,4.66-3.28,1.23,1,1.65,3.13,2.68,5.26a3.7,3.7,0,0,1,2.32.34c2.13,1.65,2.25-.68,3.14-1.5,1.4-4.34,1.45-9.08,5.84-12.26,3.06-2.21,4.91-6.34,7.21-9.49l5.78,2.64c-.6,2.36-1.19,4.66-1.93,7.51l4.94-.88c-.09-2.15-.18-4,2.73-4.36,2.5-.33,3.09-2.51,2.4-5-4.75-.35-5-.57-3.64-5.37.55-2,1.82-3.72,2.26-5.71.27-1.24-.31-2.73-.64-4.07a13.91,13.91,0,0,0-1-2.27,11,11,0,0,1,2.22-.89c2-.34,4.09-.54,6.6-.86-2.17-2.62-8.79-3.39-12.29-2.29l-6-8.58c-.18,3.75-.24,6.5-.46,9.24a4.12,4.12,0,0,1-6.51,3.07c-.23-.17-.19-.73-.34-1.36h2.06c-1.77-2-.1-7.64-5.32-5.65v4.48l-1.93,3.55,3.28.45c.14.93.31,2.13.52,3.55l3.66-2.58c-.47,3.54-.81,6.07-1.15,8.59l-1,.37c-3.18-5.77-7.78-.2-11.69-1.5a67.83,67.83,0,0,0,5-6.44c.3-.49-.82-2-1.68-3.86-.93,2.25-1.44,3.52-2.14,5.22-1-1.23-1.81-2.17-3.14-3.79-.61,3.1-1.1,5.63-1.6,8.15l-.52-.14c-.31-2.94-.63-5.89-1.07-10-3,6.51-1.9,11.19,2.33,14.4A22.61,22.61,0,0,1,82,121.09c3,3.13,2.89,4.21-.86,5.56.39,1.43.77,2.85,1.15,4.28l-1.4.6-3.52-8.73-.74.12v6.92l.56,0-1.93,8.35-4.89.92L72,133.88l-7.82,4.94-2.75-2.71c-.42,2.18-.4,3.88-1.08,5.15s-2,1.9-3.9,2.38c.6-2.12,1.2-4.25,1.79-6.37h0c0-.54.14-1.44-.1-1.58-4.67-2.79-2.17-7.17-2.19-11l-.78-1.63c-1.75,1.07-2.47.39-2.39-1.61l-5,.55c-.06.55-.25,2.08-.44,3.61.69.66,1.65,1.18,2,2a26.74,26.74,0,0,1,1.1,4.23c-1,3.57-2.93,7.18-2.77,10.68.17,3.77-.8,5.51-3.91,6.92l2.52.68c-.83,1.59-2.59,3.45-2.32,4.85.35,1.8,2.36,3.22,3.82,5l-3.22.37c-.22,1.22-.47,2.53-1,5.4-2-2.06-3.33-3.52-4.77-4.81a10.87,10.87,0,0,0-2.37-1.24c-1.34,2.29-2.68,4.58-3.76,6.41l-4.81,2.73h0L32,170.31c.6,1.48,1.25,4.14,2.7,6.13.58.79,2.92.13,4.1.13a54.44,54.44,0,0,1,5.8,4.47c.92.91,1.21,2.56,2.25,4.92l2-6.93.9.1v5.47l1.25.52c.95-2.39,1.91-4.79,3.06-7.7l4.1-1.47-4.54-3.52c-1.24-6.56,5.46-5.8,8.36-9.72,4.25,5.35,7.21,10.91,7,18.06,3.41,1,6.5,5,5.25,7.71-.55,1.17-2.94,1.38-4.7,2.11l-1.21,6.51,2.29.11,1.91-2.65c.18,1.4.29,2.31.4,3.18l-1.58.26s-31-5,1,6,50,3,62,1,37-21,37-21l3-2s0-1-5,0a15.73,15.73,0,0,1-3.48.53l.29-.21h0c-3.86.14-5.22-1.88-5.66-5.93-.23-2.07-2.44-4-4-5.78-.53-.62-1.68-.61-2.52-1-5-2-5.14-2.24-2.38-7,1.34-2.32,3.35-4.2,5-6.27l.91.77c0,1.39,0,2.77,0,4.16,1.77-.69,3.57-.94,4.57-2s1.19-3.14,1.89-5.2c.89,1.92,1.87,4,2.82,6,1.52-2.37,2.84-4.41,4.75-7.37,2.52,5.28,4.46,9.34,6.39,13.4l-.33.07,3.18,3.73,1.31-1c.54-.56,1.08-1.13,1.61-1.7l1.48-.87c-.14-2.85.07-5.51,3.15-6.61l2.29-1.75C190.58,155.26,190.34,152.5,190.09,149.75ZM49.83,177.69c-.15-.8-.32-1.59-.41-2.4a2.92,2.92,0,0,1,.92-.25c.3.74.52,1.52.76,2.29ZM81.1,167.15l.93.13c-.16,1.22-.33,2.44-.49,3.66l-1.14-.31C80.63,169.47,80.87,168.31,81.1,167.15Zm-6.46-2.43c-.11.9-.23,1.8-.34,2.7l-1.13-.35Zm-.12,15.21c0-.82-1.27-1.65-2-2.53.51-3.08,1.36-5.94,6.36-5v11.2L82,182.8v5.67C78.83,186,74.46,185.17,74.52,179.93ZM99,189.6l5.21-1.25c-.32,1.62-.6,3.05-.87,4.38l-2.54.42C100.37,192.19,99.76,191.17,99,189.6Zm36.33-2.17V184l3.39,1.49,3.25-4.65v5.48Zm43.88-24.83a4.21,4.21,0,0,1-.38-.48c0-.05.14-.28.18-.27a3.5,3.5,0,0,1,.56.24Zm4,2.49a3.91,3.91,0,0,1-.7-.71c-.06-.11.19-.42.3-.64l.82.6Zm-1.38-3-3.22-3.61,7.52-3.94,1,1.28Z"/>
        <path class="cls-11" d="M157.73,161.48s0,0,0,0v-.16l-.16.06Z"/>
      </g>
      <path class="cls-12" d="M189,159.44c-2.44,1.45.44.56.44,1.56s-3,3-3,3l-5.93,5.38-2.7-3.17.33-.07c-1.93-4.06-3.87-8.12-6.39-13.4-1.91,3-3.23,5-4.75,7.37-.95-2-1.93-4.12-2.82-6-.7,2.06-.86,4.08-1.89,5.2s-2.8,1.33-4.57,2c0-1.39,0-2.77,0-4.16l-.91-.77c-1.7,2.07-3.71,3.95-5,6.27-2.76,4.78-2.59,5,2.38,7,.84.35,2,.34,2.52,1,1.51,1.79,3.72,3.71,4,5.78.44,4.05,1.8,6.07,5.66,5.93,0,0,1.19,1.68,9.19-1.32s15-19,15-19l1-3S191.44,158,189,159.44Zm-31.27,2c.08.07,0,0,0,0Z"/>
      <path class="cls-1" d="M69.08,180.77c.2-7.15-2.76-12.71-7-18.06-2.9,3.92-9.6,3.16-8.36,9.72L58.25,176l-4.1,1.47c-1.15,2.91-2.11,5.31-3.06,7.7l-1.25-.52v-5.47l-.9-.1c-.43,1.46-.87,2.93-1.38,4.65L45.29,182a3.84,3.84,0,0,0-.65-.93,54.44,54.44,0,0,0-5.8-4.47,5.77,5.77,0,0,0-.78.06c-1.74-1.27-3.44-2.49-5.05-3.62-.39-1-.69-2-1-2.7l-4.18-1.44-.06-.2.06.19,4.81-2.73c1.08-1.83,2.42-4.12,3.76-6.41l-.78-.83-3.9-12.48c-2.32-3.88-2-5.49,1.06-8.37.89-.83,1.32-2.24,2-3.39l-1.46-1.06c-1.49,2.3-3.62,4.4-4.32,6.94-.75,2.76-.17,5.94-.17,9.36-3-1.68-3.63-3.36-1.94-4.87-1.89-4.65-4.08-8.68-5.12-13s-.92-9-1.29-13.21l-7,5c-1.51-1.34-2.55-2.28-3.59-3.21h0c.2,5.53.7,11.07.5,16.58-.13,3.57,1.13,4.44,4.11,4.48,1.27,0,2.54,1,3.81,1.59-.09.35-.19.7-.29,1l-3.22.39c-1.22,2.67-2.34,5.12-3.47,7.57A55.47,55.47,0,0,0,22.44,169v1s23,26,35,28S72,197.56,72,197.56l-3.41-1.4c.39-2.1.77-4.12,1-5.57,1.76-.73,4.15-.94,4.7-2.11C75.58,185.81,72.49,181.75,69.08,180.77Zm-41.3-12.15v0Zm0,.12-.09-.14Z"/>
      <path class="cls-5" d="M131.22,23.72l2.2-.89c-.53,3.63-1.07,7.27-1.65,11.22a5.5,5.5,0,0,0,8.87-.77c.66-1.09,0-3.33-.5-4.87-.37-1.13-2.16-2-2.18-3-.1-4.1-2.08-3.74-4.6-2.64l6-8.86a48.59,48.59,0,0,0-.81,5.46c0,.44,1.07.94,1.65,1.41.51-.56,1-1.12,1.55-1.67a29.69,29.69,0,0,1,2.57-1.8c3.57-2,8.09-1.56,9.91,1l-3.76,2.36A23.89,23.89,0,0,0,154,23.16c3.67,1.7,2.54,4,.85,6.93-3.16-4.12-10,2.31-11.79-5.64-.51,6.31,2.18,12.56-1.5,17.53,1.33,1.21,2.71,1.91,3.26,3.07,2,4.19,5,6.15,9.4,5.7l0,.82c-.27,3.61-1,7.35,2.32,10v2.48l7,10.9.65-1.1c1.47.16,4-.11,4.23.55,1.81,5.08,3.63,2.73,6.48.92,3.09-2,1.75-4.15,1.28-6.57l1.18-.37c.9,2,1.79,4,2.79,6.32l2.12-2.8c2.57,1,2.57,1,7-2.84l0,2.47c.86,2.45,1.73,4.9,2.75,7.82L195.54,74l4.35,5.31a26.91,26.91,0,0,0-.81,5.31,42.37,42.37,0,0,0,1.16,6.48c.51-.86,1-1.66,2-3.49.31,4.08,3.78,7-.5,10.16l-1.4-2.38a21.6,21.6,0,0,0-4.3,1.93c-2.12,1.58-5.48,1.93-5,6.32.14,1.28-2.18,2.86-3.38,4.31-.53-1.36-1.06-2.72-1.62-4.07a21.94,21.94,0,0,0-1.16-2,40.37,40.37,0,0,1-.34,4.8c-.43,2-.55,5.06-1.72,5.66-3.92,2-3.21,5.53-3.37,8.83s-.3,6.56-.15,9.82a8,8,0,0,0,1.52,3.55c2.24,3.45,4.59,6.81,7.13,10.56h2.69c-.2,1.44-.37,2.62-.54,3.81,0,.26,0,.52,0,.78L185.85,152l-6.5.58c-.93-3.53-3.23-2.8-6.59.26.73-3.13,1.17-5,1.72-7.34l-4.82,1.5c-.28-1.78-.53-3.35-.82-5.13l-3,1.07-2.07-4.41c-.19,7-8.22,15.25-13.34,13.5l-2.07,2.72-8.28-9.61c-1.41,2.94-3,5.11-3.48,7.52-.77,4.23-.82,8.61-1.17,12.92,0,4.48-4.92,9.29-7.73,7.38-3.78-2.56-6.9-1.72-10.32.63-3.94,2.71-12,1.35-14.71-2.19-1.32-3.45-3-3.46-5.47,0l-3.11,0-1.56,0-1.54,0-.81-1.15-.77,1.19H87.13c1.53-6.94,6.9-5.18,11.46-5.4-.2-4.72-3.19-1.48-4.63-2-.16-1.52-.29-2.81-.43-4.1l-.84,0c-.54,1-1.09,1.94-1.63,2.92l-1.57,1.34c-.52-1.27-1-2.55-1.54-3.81-1.29-3.11-2.93-2.79-4.55-.38-2,3-3.86,6.06-5.44,8.57-1-1.19-2.18-2.48-3.32-3.76h0c-.05-2.07-.5-3.37-3-3-3.47.48-4.32-.9-3.54-3.8,1.8.31,3.82,1.33,4.72.66,1.68-1.26,3-3.33,1.62-6a32.2,32.2,0,0,1-1.56-4.77l3.61.64a41.77,41.77,0,0,1-2.17-4.48c-1-3.11,2.07-5.42,4.66-3.28,1.23,1,1.65,3.13,2.68,5.26a3.7,3.7,0,0,1,2.32.34c2.13,1.65,2.25-.68,3.14-1.5,1.14.81,2.58,1.37,3.36,2.47,1.66,2.36,3,5,4.43,7.52.42,2.05.83,4.11,1.24,6.16l.88,0c.3-1.54.61-3.08.9-4.58l2.44-.78,3.16-5.95,4.56,3c4-2.39,3.51-6,2.8-9.78-.67-3.51-1.29-7-1.93-10.55-.09-2.15-.18-4,2.73-4.36,2.5-.33,3.09-2.51,2.4-5-4.75-.35-5-.57-3.64-5.37.55-2,1.82-3.72,2.26-5.71.27-1.24-.31-2.73-.64-4.07a13.91,13.91,0,0,0-1-2.27,11,11,0,0,1,2.22-.89c2-.34,4.09-.54,6.6-.86-2.17-2.62-8.79-3.39-12.29-2.29l-6-8.58c-.18,3.75-.24,6.5-.46,9.24a4.12,4.12,0,0,1-6.51,3.07c-.23-.17-.19-.73-.34-1.36h2.06c-1.77-2-.1-7.64-5.32-5.65l-4.66-1.7a21.47,21.47,0,0,0-.43-2.42c-1.2-4.09.9-7.51,5.16-8.33,0,.65,0,1.29,0,1.93-2.07.85-4,2.09-2.88,4.77.39,1,2.15,1.62,3.35,1.78.67.08,2.21-1.35,2.11-1.75a25.74,25.74,0,0,0-2-4.56l7.74-12.33c7.43-11.61,15-23.14,22.23-34.86,3.22-5.2,5.88-10.78,8.8-16.19Zm17.83,28.89c-1.47,1-3,2-4.4,3.18-.57.49-1.23,1.61-1.07,2.19.59,2.08,1.51,4.05,2.31,6.09l7.78-2.58Zm-20.42-16-1.18,1.14a26.5,26.5,0,0,0,2.15,2.74c.09.09,1.06-.82,1.62-1.26C130.36,38.4,129.49,37.53,128.63,36.66Zm17.42-15.07a7,7,0,0,0-.77,1.65c0,.19.56.7.68.64a1.8,1.8,0,0,0,1-.92C147,22.71,146.5,22.28,146.05,21.59ZM139.82,59a4,4,0,0,0-.58-.36s-.23.21-.21.25a2.69,2.69,0,0,0,.33.54Z"/>
      <path class="cls-1" d="M140.16,20.82c-.58-.47-1.67-1-1.65-1.41a48.59,48.59,0,0,1,.81-5.46q1.41-2.55,2.85-5.11L147.06,11a1.56,1.56,0,0,0,.71.11,62.63,62.63,0,0,1,7.1,3.9c7.52,5.45,14.91,11.12,22.41,16.6a20.83,20.83,0,0,0,4.14,1.83c0,.46.07.93.11,1.39,1.12,2.22,2,4.67,3.42,6.6,2,2.65,4.88,4.6,6.6,7.4,2.83,4.62,4.67,10,7.59,14.5,3.54,5.49,4.5,11.9,5.54,17.95,1.52,8.86,1.4,18.07,1.72,27.14.13,3.82-.43,7.68-.68,11.51l.72,2.3q-1.06,4.45-2.15,8.91c-.74,2.44-1.49,4.88-2.23,7.31l-5.61-.46c.16,2,.29,3.54.34,4.08l-4.29,7.2-2.37-.29.54-3.81H188c-2.54-3.75-4.89-7.11-7.13-10.56a8,8,0,0,1-1.52-3.55c-.15-3.26,0-6.55.15-9.82s-.55-6.79,3.37-8.83c1.17-.6,1.29-3.67,1.72-5.66a40.37,40.37,0,0,0,.34-4.8,21.94,21.94,0,0,1,1.16,2c.56,1.35,1.09,2.71,1.62,4.07,1.2-1.45,3.52-3,3.38-4.31-.47-4.39,2.89-4.74,5-6.32a21.6,21.6,0,0,1,4.3-1.93l1.4,2.38c4.28-3.17.81-6.08.5-10.16-1.07,1.83-1.53,2.63-2,3.49a42.37,42.37,0,0,1-1.16-6.48,26.91,26.91,0,0,1,.81-5.31L195.54,74c-.79-4.51-4.15-1.69-6.24-2.5,0-.82,0-1.65,0-2.47-.84-.9-1.53-2.11-2.54-2.63-2.93-1.53-3.75-3.81-2.82-6.6-1.14-1.38-3.11-2.77-2.93-3.72.62-3.34-1.33-5-2.46-7.46-1.52-3.32-3.32-3.38-5.66-3.9l-5.42-1.22c1.24-.86,2-1.36,2.35-1.61-1.31-2.38-2.35-4.28-3.83-7l-1.54,5.18-8.7-3.79C157.45,33.41,158.89,31,160,29c-1.12-2.28-2-4-2.81-5.76l1-.68,3.23,2c.24-1.47,0-2.69-.67-3.07-2.1-1.22-4.36-2.13-6.56-3.16-1.82-2.53-6.34-3-9.91-1a29.69,29.69,0,0,0-2.57,1.8C141.19,19.7,140.67,20.26,140.16,20.82Z"/>
      <path class="cls-3" d="M133.36,22.81c2.52-1.1,4.5-1.46,4.6,2.64,0,1,1.81,1.83,2.18,3,.52,1.54,1.16,3.78.5,4.87a5.5,5.5,0,0,1-8.87.77c.58-3.95,1.12-7.59,1.65-11.22Z"/>
      <path class="cls-5" d="M133.53,17.61l-2.31,6.11-.74.79-5.17,6.78a54,54,0,0,1-1.21-7.52c0-.52,2.13-1,3-1.79a9.45,9.45,0,0,0,1.38-2.81l2.31-.85Z"/>
      <path class="cls-3" d="M125.53,14.61l-2.75.71c-.07-.86-.51-2.13-.14-2.51,1.76-1.82,3.75-3.4,5.65-5.06h.33l.32,0,1.05.7q-1.2,1.88-2.41,3.74L127,12,126.91,13l0-.15L126,14Z"/>
      <path class="cls-3" d="M137,9.13l1.74.11c-.25.73-.49,1.46-.73,2.19l-1.05-.7C137,10.2,137,9.66,137,9.13Z"/>
      <path class="cls-5" d="M134.91,16,135,15l.61.21Z"/>
      <path class="cls-3" d="M138.64,9.26l1.17-.89Z"/>
      <path class="cls-13" d="M98.54.34l6.24,0,3.11,0,.45.62h0c2.89-1.33,5.57-1.88,6.89,2.74l-6.4.53-4.09-1h-2l-4.28-.53C98.48,1.89,98.51,1.12,98.54.34Z"/>
      <path class="cls-1" d="M110.46,4.21l4.8-.35a3.29,3.29,0,0,0,.76.06l3.11,1.17,3.42,6.19,6.66-4.58h3.18c.23.11.46.21.7.3l1.19,2.19.43-1L136.4,9c0,.58-.07,1.15-.11,1.73-1.9,1.66-3.89,3.24-5.65,5.06-.37.38.07,1.65.14,2.51l-2.31.85h-5.35c0-5.27-2-7.81-7.58-5.47V10.56h-4.19a8.21,8.21,0,0,0,.64,1.63,3.07,3.07,0,0,0,.77.73,23.49,23.49,0,0,1-2.65,3.46,3.62,3.62,0,0,1-2.61.92A2.56,2.56,0,0,1,106,15.43a30.32,30.32,0,0,1,.34-4.76c-5.09-1.44-5.38-2-2.79-4.82L104.67,7l1.19-3.49h1.54Zm18,10.39a3,3,0,0,0-.35.52c0,.05.16.28.19.27a4.29,4.29,0,0,0,.55-.31Z"/>
      <path class="cls-2" d="M129.21,6.7l-6.66,4.58-3.42-6.19,7,.6,3.09.18C129.22,6.14,129.22,6.42,129.21,6.7Z"/>
      <path class="cls-13" d="M126.13,5.69l-7-.6L116,3.92C119.64,2.94,123.13,2.75,126.13,5.69Z"/>
      <path class="cls-2" d="M134.71,8.21l-.43,1L133.09,7l1.52-.18C134.64,7.27,134.68,7.74,134.71,8.21Z"/>
      <path class="cls-3" d="M154.19,18.32c2.2,1,4.46,1.94,6.56,3.16.66.38.91,1.6.67,3.07l-3.23-2-1,.68c.85,1.74,1.69,3.48,2.81,5.76-1.15,1.94-2.59,4.39-4.31,7.31l8.7,3.79L166,34.94c1.48,2.71,2.52,4.61,3.83,7-.37.25-1.11.75-2.35,1.61l5.42,1.22c2.34.52,4.14.58,5.66,3.9,1.13,2.5,3.08,4.12,2.46,7.46-.18,1,1.79,2.34,2.93,3.72-.93,2.79-.11,5.07,2.82,6.6,1,.52,1.7,1.73,2.54,2.63-4.42,3.87-4.42,3.87-7,2.84l-2.12,2.8c-1-2.27-1.89-4.3-2.79-6.32l-1.18.37c.47,2.42,1.81,4.61-1.28,6.57-2.85,1.81-4.67,4.16-6.48-.92-.23-.66-2.76-.39-4.23-.55l-.65,1.1-7-10.9,7.5,6c.86-1.49,1.43-2.47,2.29-4,1.73,2,3.2,3.67,4.66,5.36l1.28-.28c-.2-3.2-.74-6.44-.54-9.62.38-6.06-1.56-9.94-7.51-11A2.63,2.63,0,0,1,162.71,49a10.74,10.74,0,0,0-6.78-6.87c-1.12-.38-3.18-.15-3.69.62s0,2.72.39,4.06a30.39,30.39,0,0,0,1.57,3.91c-4.39.45-7.4-1.51-9.4-5.7-.55-1.16-1.93-1.86-3.26-3.07,3.68-5,1-11.22,1.5-17.53,1.84,8,8.63,1.52,11.79,5.64,1.69-2.92,2.82-5.23-.85-6.93a23.89,23.89,0,0,1-3.55-2.48Z"/>
      <path class="cls-1" d="M91.44,86.19l7.26-12L111.24,53l-.07,0c2.13-3,4.44-5.79,6.33-8.91,2.24-3.7,4.12-7.65,6.16-11.49a.33.33,0,0,0,.47.24q3.18-4.14,6.35-8.3c-3.58,6.62-6.85,13.46-10.8,19.81C110.75,58.68,101.5,72.79,92.38,87Z"/>
      <path class="cls-3" d="M146.05,21.59c.45.69.94,1.12.87,1.37a1.8,1.8,0,0,1-1,.92c-.12.06-.71-.45-.68-.64A7,7,0,0,1,146.05,21.59Z"/>
      <path class="cls-2" d="M103.51,5.85,100.4,5l-6.29-.58,4-1.3L100.32,3l2.34.16,3.2.34L104.67,7Z"/>
      <path class="cls-1" d="M94.11,4.46,100.4,5c0,1.1-.09,2.21,0,3.3.21,2.53-.91,3.22-3.17,3.43-2.8.25-5.49,1.23-7.94-1.28-.61-.61-2-.37-3-.52,1-2.37,2-4.62,5.07-4.12a7.42,7.42,0,0,0,.48-1.39Z"/>
      <path class="cls-1" d="M107.4,53.25c-1.35-2.86-3.27-5.26-2.64-9.13.34-2-1.9-4.57-3.06-7.06l-2.69,1c-2.34-1.82.68-7.22,6-10.45l-.9,2.85,6.39,6.66,4.75-1,1.54,3v2.49h0l-2,6.15,0,0c-1.82,1.38-3.63,2.78-5.46,4.15C108.72,52.41,108.05,52.82,107.4,53.25Z"/>
      <path class="cls-1" d="M104.6,17.18A18.78,18.78,0,0,1,103.06,19c-1.74,1.63-3.76,4.71-5.23,4.44-2.11-.38-3.91-3.14-5.63-5.1a4.84,4.84,0,0,1,1.85-2.77c1.4-.63,3.08-.53,5.23-.81.42,1,1,2.38,1.64,3.77l2.83-2.58C104,16.32,104.32,16.75,104.6,17.18Z"/>
      <g>
        <path class="cls-3" d="M127.09,22a9.45,9.45,0,0,0,1.38-2.81h-5.35c0-5.27-2-7.81-7.58-5.47V10.56h-4.19a8.21,8.21,0,0,0,.64,1.63,3.07,3.07,0,0,0,.77.73,23.49,23.49,0,0,1-2.65,3.46,3.62,3.62,0,0,1-2.61.92A2.56,2.56,0,0,1,106,15.43a30.32,30.32,0,0,1,.34-4.76c-5.09-1.44-5.38-2-2.79-4.82L100.4,5c0,1.1-.09,2.21,0,3.3.21,2.53-.91,3.22-3.17,3.43-2.8.25-5.49,1.23-7.94-1.28-.61-.61-2-.37-3-.52-3.07-.47-6.14-1.35-9.19-1.3a16.82,16.82,0,0,0-7.36,2c-3.73,2-7.18,4.52-10.75,6.83a20.73,20.73,0,0,1,4.17,1.82,21.91,21.91,0,0,1,3.21,3.37l-.73,1a52.4,52.4,0,0,0-7.15-.55,3.28,3.28,0,0,0-2.32,2.23c0,3.75.32,7.51.53,11.26l4.61-1.48L68.48,30c-1.46,2.89-4.11,4.72-7.1,6.25-4.8,3.93-10.23,3.28-15.56,2.05-2-.46-3.71-2.16-5.56-3.3l-2.4-1.86-2.2-1.8c-.55.75-1,2-1.67,2.17-3.74,1-5.28,4.16-7,7.26,1.75,2.41,4.48,4.08,4.25,7.92-.05.88,2.44,2.83,3.48,2.63,1.2-.24,2.25-2.2,3-3.63.33-.63-.24-1.79-.28-2a32.05,32.05,0,0,1,4.19-2.17,10.75,10.75,0,0,1,3-.16c-.17,1.27,0,2.74-.58,3.76s-2.74,1.67-2.69,2.36c.22,2.76.24,6.19,1.76,8.05,2.74,3.35,3.36,6.06.29,9.42L46,70c-.35,2-.61,3.57-.88,5.14l6.33-1.19.24.92c-3.23,1.66-6.47,3.28-9.68,5-6.63,3.55-13.22,7.2-19.88,10.7a9.08,9.08,0,0,1-2.81.72l-.15-.83c-.69.53-2.69,1.14-7.72,1.6l-11,1s-1,27,0,29,5,21,7,21a.35.35,0,0,0,.24-.12,56.29,56.29,0,0,0,3.67,9.4c1.13-2.45,2.25-4.9,3.47-7.57l3.22-.39c.1-.34.2-.69.29-1-1.27-.56-2.54-1.57-3.81-1.59-3,0-4.24-.91-4.11-4.48.18-5.18-.24-10.38-.45-15.57l.94-.13,2.61,2.32,7-5c.37,4.21.25,8.86,1.29,13.21s3.23,8.37,5.12,13c-1.69,1.51-1.05,3.19,1.94,4.87,0-3.42-.58-6.6.17-9.36.7-2.54,2.83-4.64,4.32-6.94l1.46,1.06c-.64,1.15-1.07,2.56-2,3.39-3.09,2.88-3.38,4.49-1.16,8.61.17-.54.27-.83.37-1.12l.23.11c-.15.27-.3.54-.6,1,1.4,3.92,2.7,8.08,4,12.24l2.72-2.55-1.92-2.2c.14-2.35,0-4.11.43-5.63a11.5,11.5,0,0,1,2.47-3.82c1.54-1.77,2.61-3,1.19-5.93-1.9-3.88-2.69-8.37-4.25-13.58l4.11,1,.67-.91-5.61-5.39V132c-3.71-4.36-3.88-10-1.28-13.37.61-.8,1.3-2.13,1.09-3-.9-3.5,1.26-4.64,3.5-5.84a2.72,2.72,0,0,0,2-4.34c-2.88-4.64-1.16-8.14,1.69-11.66a7.9,7.9,0,0,0,.78-2.07L45,93.53c3.21-3.89,3.55-4.53,6.57-2.19V99L56,97.39c.2-2.79.2-2.79,2.27-2.55a3.18,3.18,0,0,1,.23.58c0,.06-.15.17-.23.25.32,2-1.12,5.36,3.19,4.81-1.46-5,2.47-3.85,4.61-4.81.17-3.37.1-6.64-3.34-9.12l-3,3.81c-1.66-2.93-2.41-5.49,1-7.56.11-.07.27-.14.31-.25,1.6-4,4.06-5.89,8.15-3.91,1.2.57,2.37,1.22,3.55,1.86,1,.54,2,1,2.87,1.68s1.63,1.3,2.43,2l-.74,1H72.11l-.25,1L77,88.05l-.33,1.31-3.7.36,2.1,7.13-4-2.39-3.41,2.06c-.42,1.26-.84,2.51-1.22,3.63L74,107.53v-4.78a18.86,18.86,0,0,1,3.68-.82c2.42-.06,4.49-.14,5.32-3.38.25-1,2.23-1.4,3.41-2.08a21.47,21.47,0,0,0-.43-2.42c-1.2-4.09.9-7.51,5.16-8.33q2.73-4.55,5.45-9.11c-1.2.41-2.41.79-3.59,1.24s-2.2,1-3.85,1.66l-.45,1.86L87.59,82C88,74.23,84.75,70.1,76.48,70.23l9.09-5.31-.44-1.05L74.28,65.26c1.48-2.49,3-3.9,3-5.31,0-1.16-1.77-2.31-3-3.71l2.2-2.11L69.7,49.62,76.46,47c1.37,2.6,2.86,5.68,4.58,8.61,2.56,4.37,3.1,4.44,7.22,1.52.28,1.38.54,2.65.8,4l7.38.62c3.92,5.28.94,10.06.11,14.94l2.14-1.7,5.91-9.85c-1.37-2.27-2.82-4.49-4-6.85a12,12,0,0,1-.81-3.09l7.66-1.86c-1.35-2.86-3.27-5.26-2.64-9.13.34-2-1.9-4.57-3.06-7.06l-2.69,1c-2.34-1.82.68-7.22,6-10.45l-.9,2.85,6.39,6.66,4.75-1,1.54,3c1.86-1.78,5.42-3,1.85-6.14l6.31-1.89c.07.2.19.27.39.2a54,54,0,0,1-1.21-7.52C124.07,23.25,126.23,22.81,127.09,22ZM7.53,123c0-.62-.09-1-.09-1l1.28-.18ZM79.71,12.71l-.13-.3h.27ZM103.06,19c-1.74,1.63-3.76,4.71-5.23,4.44-2.11-.38-3.91-3.14-5.63-5.1a4.84,4.84,0,0,1,1.85-2.77c1.4-.63,3.08-.53,5.23-.81.42,1,1,2.38,1.64,3.77l2.83-2.58c.29.42.57.85.85,1.28A18.78,18.78,0,0,1,103.06,19Z"/>
        <path class="cls-3" d="M19,89.26l.2,1.14C20,89.77,19,89.26,19,89.26Z"/>
      </g>
      <circle class="cls-14" cx="104.29" cy="105.27" r="0.59"/>
      <circle class="cls-14" cx="61.75" cy="150.23" r="0.59"/>
      <circle class="cls-14" cx="89.97" cy="120.43" r="0.59"/>
      <path class="cls-15" d="M104.93,102.43a25.65,25.65,0,0,1,2,4.55c.1.4-1.44,1.84-2.11,1.75-1.21-.16-3-.81-3.36-1.78-1.09-2.68.81-3.91,2.88-4.77A.62.62,0,0,0,104.93,102.43Z"/>
      <path class="cls-5" d="M91.71,87.89a25.74,25.74,0,0,1,2,4.56c.1.4-1.44,1.83-2.11,1.75-1.2-.16-3-.81-3.35-1.78-1.1-2.68.81-3.92,2.88-4.77A.59.59,0,0,0,91.71,87.89Z"/>
      <g>
        <path class="cls-16" d="M64.74,16.24l1.56,3.44-1.64.6c-.32-1.22-.65-2.44-1-3.66Z"/>
        <path class="cls-17" d="M36.68,114.37c0,1.3.07,2.6.11,3.9C34.28,117,33.49,115.72,36.68,114.37Z"/>
        <path class="cls-17" d="M31.55,135.46l-3.11,1.12Z"/>
        <path class="cls-17" d="M34.49,130.12l-1.16,1.73Z"/>
        <path class="cls-17" d="M32.65,134.66l-.81.6Z"/>
        <path class="cls-16" d="M43.5,109.07l2,.38-2.13,11.11-2-.3Z"/>
        <path class="cls-16" d="M70.47,21.59,65,25.78l-1.18-2.27,6.64-2Z"/>
        <polygon class="cls-16" points="41 123.89 41.27 123.59 41.34 123.98 41 123.89"/>
        <path class="cls-18" d="M39.71,116.74a3.84,3.84,0,0,1-.09-.75c0-.1.19-.18.29-.27a4.74,4.74,0,0,1,.06.75C40,116.57,39.8,116.65,39.71,116.74Z"/>
        <path class="cls-19" d="M30,169.78l3.34-2.35,1.37,2-3.42,2.23Z"/>
        <polygon class="cls-18" points="32.34 163.97 32.69 164.04 32.45 164.35 32.34 163.97"/>
        <path class="cls-18" d="M45.1,94.79c-.46,2.84-.91,5.68-1.37,8.51l-1.37,1.63Q43.74,99.86,45.1,94.79Z"/>
        <path class="cls-20" d="M39.57,152.48l-.34-3.41,1.15-.07.3,3.42Z"/>
        <polygon class="cls-21" points="61.56 9.12 39.56 115.12 130.56 107.12 61.56 9.12"/>
        <polygon class="cls-22" points="157.56 146.12 156.56 148.12 153.56 149.12 159.56 162.12 169.56 162.12 157.56 146.12"/>
        <path class="cls-16" d="M126.46,103.74l.06,4.36-1.08,1c-2.46-2.68-5.07-5.26-7.28-8.12-.55-.72.2-2.38.35-3.61a22.43,22.43,0,0,1,2.94,1.8c1.72,1.44,3.33,3,5,4.54A.42.42,0,0,1,126.46,103.74Z"/>
        <path class="cls-16" d="M119.55,94c-2.27,2.94-5.08,3.09-8.86,1.25,2.78-3.26,6-1.43,8.85-1.26Z"/>
        <path class="cls-16" d="M112.45,87.85l2.25,2.08-1.29.79L112.27,88Z"/>
        <path class="cls-3" d="M112.27,81.3l1.59,2.49Z"/>
        <path class="cls-3" d="M113.79,83.58l.89,1.37C114.38,84.49,114.08,84,113.79,83.58Z"/>
        <path class="cls-16" d="M73.51,147.12l.93-.7Z"/>
        <path class="cls-17" d="M63.66,157.69l-.94-.18Z"/>
        <path class="cls-16" d="M49.58,138.74c-1.47,4.37.05,9.83-4.81,13,.51,8.25-5.47,2.38-8.23,3.51.24-2.45.33-4.93.77-7.34.33-1.77.68-3.79,1.77-5.1,1.85-2.23,4.3-4,6.71-6.11Zm-10,13.74,1.11-.06-.3-3.42-1.15.07Z"/>
        <path class="cls-23" d="M49.58,138.74l-3.79-2.05c-2.41,2.13-4.86,3.88-6.71,6.11-1.09,1.31-1.44,3.33-1.77,5.1-.44,2.41-.53,4.89-.77,7.34l-1.82,4.49c-.3-1.51-1-3.07-.83-4.54.3-2.93,1.3-5.8,1.47-8.73.07-1.23-1.22-2.55-1.89-3.84l-1.16-.32c.55-1.2,1.1-2.4,1.64-3.61.64-1.45,1.27-2.91,1.91-4.36.23.88.46,1.76.82,3.1,3-1.74,5.81-3.84,9-5,1.46-.53,3.65.8,5.51,1.29Q50.38,136.22,49.58,138.74Z"/>
        <path class="cls-24" d="M52.61,44.66l2.9-1a8,8,0,0,0,8.35-5c.13-.63.26-1.27.4-1.9a6.31,6.31,0,0,1,3.81,7.83c-.53,1.85-4.45,3-7,4a46.18,46.18,0,0,1-7,1.58l-.91-1.61C53,47.19,52.79,45.92,52.61,44.66Z"/>
        <path class="cls-16" d="M99.59,67.37l-4-1.05-2.25,5c-5.24-3.79-3.39-8.59-2.28-13.77L86,59.22l2-6.71,1.71-.14,10,15Z"/>
        <path class="cls-16" d="M55.38,103.84l2.5,5.12c-.86.18-2.05.78-3.09.58-3.4-.65-3.87.65-3.18,3.54.4,1.67.09,3.5.1,5.87-5.85-2.92-2.91-7.58-4-11,.75-.74,2-1.38,2.15-2.24C50.6,101.7,52.51,101.58,55.38,103.84Z"/>
        <path class="cls-16" d="M81.85,42.27c-4.94.86-4.55-8.6-10.91-4.33l2.36-4.48-8.46-3.59,4.72-.41,1.31-3.84Z"/>
        <path class="cls-16" d="M108.21,76.49a.52.52,0,0,1,.5.6c.57,2.27,1,4.57,1.76,6.78a28.91,28.91,0,0,0,2,4l-.18.12c-3.73-.84-6-2.77-6.85-6.71-.56-2.51-2.83-4.62-3.92-7.09a48.13,48.13,0,0,1-1.91-6.8l0,0C102.39,70.48,103.1,75.44,108.21,76.49Z"/>
        <path class="cls-25" d="M55.38,103.84c-2.87-2.26-4.78-2.14-5.56,1.82-.17.86-1.4,1.5-2.15,2.24l-2.19,1.55-2-.38-1.88,0q1.55-2.72,3.07-5.43c3.63,1.31,4.05-1.9,5.49-3.67a26.59,26.59,0,0,1,5-.76c.58,0,1.16,1.31,1.73,2l-.36.1.18.6Z"/>
        <path class="cls-16" d="M66.74,62.66c.1,3.65.2,7.21.32,11.41L63,73.61l1.1-.94a52.76,52.76,0,0,1-2.51-6.31,3.11,3.11,0,0,1,1.23-2.68C63.74,63,65.16,63,66.74,62.66Z"/>
        <path class="cls-16" d="M81.77,78.07l8.8-1.95c-.11.55,0,1.75-.46,2.07a45.63,45.63,0,0,1-11,5.66Z"/>
        <path class="cls-16" d="M78.05,77.53c-.41,2-.47,4.08-1.35,5.8-.65,1.28-2.37,2-4.13,2.45,1.45-3.15.24-7.86,5.46-8.27Z"/>
        <path class="cls-16" d="M62,85.33c.28,2.37.65,4.74.77,7.12,0,.51-1,1.56-1.31,1.48-.78-.21-2-.93-2-1.42.06-2.52.45-5,.73-7.55Z"/>
        <path class="cls-16" d="M64.26,36.71c-.14.63-.27,1.27-.4,1.9L59.28,39l1.93-10Z"/>
        <path class="cls-16" d="M67.29,51.54l3-5.84C73.57,49.44,73,50.55,67.29,51.54Z"/>
        <path class="cls-16" d="M71.43,54.08c-.32,2.26-.65,4.53-1,6.89C66.9,59.72,66.9,59.72,71.43,54.08Z"/>
        <path class="cls-16" d="M78.56,92.19l0-5.2,1.09,0,.36,5.3Z"/>
        <path class="cls-16" d="M70.09,88.37c3.19,2.43.57,3.53-1.34,4.79l1.3-4.77Z"/>
        <path class="cls-16" d="M74.25,53.32c.56-1.09,1.11-2.18,1.66-3.27l1.16.44L75.93,54Z"/>
        <path class="cls-16" d="M86.89,74.36l-3-.56a9.26,9.26,0,0,1,.36-1.64,27.27,27.27,0,0,1,2.94.48Z"/>
        <path class="cls-16" d="M78,77.51c.35-.72.7-1.44,1-2.16l.88.81-1.9,1.37Z"/>
        <path class="cls-16" d="M63.18,79l-.51-.55a4.48,4.48,0,0,1,.65-.34c.06,0,.3.23.27.27A3.5,3.5,0,0,1,63.18,79Z"/>
        <path class="cls-18" d="M57.11,37.39l.42-1.93Z"/>
        <path class="cls-16" d="M70.05,88.39c-.15-.32-.3-.64.06.14-.12-.86-.07-.51,0-.16Z"/>
        <path class="cls-16" d="M62.16,145l.23-.24-.21.27Z"/>
        <path class="cls-16" d="M56.69,102l-.18-.6.36-.1Z"/>
        <path class="cls-16" d="M87.2,49.82,87,49.51l.42.2Z"/>
        <path class="cls-16" d="M87.37,49.71l.24.3-.41-.19Z"/>
        <path class="cls-19" d="M48.35,155.7l2.22,1-.82.84-1.42-1.86Z"/>
        <path class="cls-19" d="M45.1,94.79q1.95-9.51,3.88-19c.48.57,1.45,1.25,1.36,1.7-1.84,8.7-3.8,17.38-5.74,26.06a6.15,6.15,0,0,1-.87-.22C44.19,100.47,44.64,97.63,45.1,94.79Z"/>
        <polyline class="cls-26" points="101.56 156.12 97.56 163.12 98.56 172.12 100.64 176.09 169.56 176.12 168.56 168.12 146.56 155.12 123.56 151.12 101.56 156.12"/>
        <path class="cls-16" d="M109.56,169.12l-3-4v4l-3,1a10.07,10.07,0,0,0-3-1c-1,0-1-2,1-7s-2-5-2-5l-4-2-1-3-6-6-3,3-12.09-2h0c-9.37-2.59-13.86,5.51-21.12,8.21a37.05,37.05,0,0,1,4.92-5.66c1.6-1.59,3.27-3.12,4.91-4.67l0,0-11.65-1.64c-.07.27-.13.53-.19.8L57.43,147c-4.65,2.43-9.72,3.12-9.08,8.74l2.22,1-.82.84-1.42-1.86c-1.59,1.51-3.07,3.15-4.8,4.5a40.88,40.88,0,0,1-4.71,2.8c-.21-1.47-.42-2.94-.62-4.39l-3.48,1.11c-.3-1.51-1-3.07-.83-4.54.3-2.93,1.3-5.8,1.47-8.73.07-1.23-1.22-2.55-1.89-3.84-1.82,9.11-3.66,18.2-5.42,27.32a50.38,50.38,0,0,0-.49,5.5l1.32-.09h0l72.68.77v-1l-1-1,1-1s6,0,8-1S109.56,169.12,109.56,169.12ZM32.69,164l-.24.31-.11-.38Zm.61,3.39c.46.66.92,1.31,1.37,2l-3.42,2.23L30,169.78Z"/>
        <g>
          <path class="cls-19" d="M111.27,166.56l-.06.09Z"/>
          <path class="cls-19" d="M111.34,166.45l-.07.11Z"/>
          <path class="cls-19" d="M111.46,166.27l-.12.18Z"/>
          <path class="cls-19" d="M111.21,166.65l-.14.21Z"/>
          <path class="cls-19" d="M110.93,167.07h0Z"/>
          <path class="cls-19" d="M111.07,166.86l-.14.21Z"/>
          <path class="cls-19" d="M111.55,166.13v0Z"/>
          <path class="cls-19" d="M111.47,166.25v0Z"/>
          <path class="cls-19" d="M111.56,166.12Z"/>
          <path class="cls-19" d="M111.54,166.16l-.07.09Z"/>
          <path class="cls-19" d="M110.36,167.92l-.06.09Z"/>
          <path class="cls-19" d="M110.27,168.06Z"/>
          <path class="cls-19" d="M110.3,168l0,.05Z"/>
          <path class="cls-19" d="M110.43,167.82l-.07.1Z"/>
          <path class="cls-19" d="M169.56,162.12h-10l-6-13,3-1,1-2-18-25-7.15-11.48h0l1.37-.61-1.83-.35-5.48-4.93.06,4.36-1.08,1c-2.46-2.68-5.07-5.26-7.28-8.12-.55-.72.2-2.38.35-3.61a22.43,22.43,0,0,1,2.94,1.8c1.72,1.44,3.33,3,5,4.54L119.55,94c-2.27,2.94-5.08,3.09-8.86,1.25,2.78-3.26,6-1.43,8.85-1.26q-2.48-4.47-4.93-8.94l.07-.08-.89-1.37.07.21-1.59-2.49-3.56-4.21c.57,2.27,1,4.57,1.76,6.78a28.91,28.91,0,0,0,2,4l2.25,2.08-1.29.79L112.27,88c-3.73-.84-6-2.77-6.85-6.71-.56-2.51-2.83-4.62-3.92-7.09a48.13,48.13,0,0,1-1.91-6.8l-4-1.05-2.25,5c-5.24-3.79-3.39-8.59-2.28-13.77L86,59.22l2-6.71,1.71-.14,10,15c2.76,3.13,3.47,8.09,8.58,9.14-5-7.58-10.06-15.18-15.14-22.73Q84,40.35,74.92,27c-1.32-1.92-3-3.62-4.45-5.43L65,25.78l-1.18-2.27,6.64-2Q67.14,15.76,63.84,10l-1.48.28L57.53,35.46l-.42,1.93c-.53,2.08-1.07,4.16-1.6,6.23a8,8,0,0,0,8.35-5L59.28,39l1.93-10,3.05,7.78a6.31,6.31,0,0,1,3.81,7.83c-.53,1.85-4.45,3-7,4a46.18,46.18,0,0,1-7,1.58l-4.2,21.09,9.5-3.25c.26,5.35.45,9.45.65,13.65l-4.88-.67a39,39,0,0,0,.12,4.46,17,17,0,0,0,1.12,4.52c1.56,3.6-.16,5.5-3.47,6.9L51.3,94.12c-.44,2.29-.78,4.08-1.12,5.88a25.81,25.81,0,0,1,5-.77c.58,0,1.16,1.31,1.73,2l-.18.7-1.31,1.89,2.5,5.12c-.86.18-2.05.78-3.09.58-3.4-.65-3.87.65-3.18,3.54.4,1.67.09,3.5.1,5.87-5.85-2.92-2.91-7.58-4-11l-2.19,1.55-2.13,11.11-2-.3q1.08-5.6,2.15-11.19l-1.88,0a1.33,1.33,0,0,1-.25.64q-.73,3-1.46,6a4.74,4.74,0,0,1,.06.75c0,.1-.17.18-.26.27q-1.93,8.81-3.85,17.59c.23.88.46,1.76.82,3.1,3-1.74,5.81-3.84,9-5,1.46-.53,3.65.8,5.51,1.29q-.81,2.5-1.61,5c-1.47,4.37.05,9.83-4.81,13,.51,8.25-5.47,2.38-8.24,3.51-.6,1.5-1.21,3-1.81,4.49l3.48-1.11c.2,1.45.41,2.92.62,4.39a40.88,40.88,0,0,0,4.71-2.8c1.73-1.35,3.21-3,4.8-4.5h0c-.64-5.62,4.43-6.31,9.08-8.74l-7.11-2.81c.06-.27.12-.53.19-.8L62.16,145l.23-.24-.21.27c-1.64,1.55-3.31,3.08-4.91,4.67a37.05,37.05,0,0,0-4.92,5.66c7.26-2.7,11.75-10.8,21.12-8.21l0,0,.93-.7,1.78-1.08-2.71,1.78s9,3,9,4,4,3,4,3l1-1,1-2-1-1s-1-4,2-2a29.58,29.58,0,0,1,4,3l1,4,2,1a14.09,14.09,0,0,0,5,3c3,1,4,0,5,4s5,3,5,3l2-3c6-9,13-8,13-8l4,9-2,5-1-3h-2l1,4h4l1-1h3v4l3,1v1l1,1,2-3s0-3,3-1,3,3,3,3l1,1,2-7s9-1,11,2,2,3,2,4,10,1,10,1h6ZM87.37,49.71l.24.3-.41-.19c-.08-.1-.17-.2-.25-.31ZM64.74,16.24l1.56,3.44-1.64.6c-.32-1.22-.65-2.44-1-3.66ZM41,123.89l.26-.29.08.38ZM90.57,76.12c-.11.55,0,1.75-.46,2.07a45.63,45.63,0,0,1-11,5.66l2.64-5.78ZM80.06,92.26l-1.5-.07c0-1.73,0-3.47,0-5.2l1.09,0Zm4.23-20.1a27.27,27.27,0,0,1,2.94.48l-.34,1.72-3-.56A9.26,9.26,0,0,1,84.29,72.16ZM64.84,29.87l4.72-.41,1.31-3.84,11,16.65c-4.94.86-4.55-8.6-10.91-4.33l2.36-4.48ZM77.07,50.49,75.93,54l-1.68-.71c.56-1.09,1.11-2.18,1.66-3.27ZM61.42,93.93c-.78-.21-2-.93-2-1.42.06-2.52.45-5,.73-7.55l1.84.37c.28,2.37.65,4.74.77,7.12C62.75,93,61.73,94,61.42,93.93ZM63.18,79l-.51-.55a4.12,4.12,0,0,1,.66-.34c.05,0,.29.23.26.27A3.5,3.5,0,0,1,63.18,79ZM63,73.61l1.1-.94a52.76,52.76,0,0,1-2.51-6.31,3.11,3.11,0,0,1,1.23-2.68c1-.65,2.39-.66,4-1,.1,3.65.2,7.21.32,11.41Zm8.48-19.53c-.32,2.26-.65,4.53-1,6.89C66.9,59.72,66.9,59.72,71.43,54.08ZM68.75,93.16q.66-2.39,1.3-4.77l.06.14c-.12-.86-.07-.51,0-.16C73.28,90.8,70.66,91.9,68.75,93.16Zm1.14-5.1Zm0,.11.09.18ZM67.29,51.54l3-5.84C73.57,49.44,73,50.55,67.29,51.54Zm5.28,34.24c1.45-3.15.24-7.86,5.46-8.27.35-.72.7-1.44,1-2.16l.88.81-1.9,1.37c-.41,2-.47,4.08-1.35,5.8C76.05,84.61,74.33,85.36,72.57,85.78Z"/>
          <path class="cls-19" d="M110.78,167.29l-.13.19Z"/>
          <path class="cls-19" d="M110.92,167.08l-.14.21Z"/>
          <path class="cls-19" d="M110.44,167.81h0Z"/>
          <path class="cls-19" d="M110.65,167.48l-.11.18Z"/>
          <path class="cls-19" d="M110.54,167.66l-.1.15Z"/>
        </g>
        <path class="cls-16" d="M148,136.09c-.21,1.23-.42,2.47-.68,4l5.23,1.77c-3.29,5.57-8.24,4.17-13.5,3.55l2.09,5-6.86-1.36-.29-1.69,14-11.3Z"/>
      </g>
      <path class="cls-27" d="M104.26,104.24c.07,3,.25,6,.13,9,0,.75,0,1.5,0,2.25s.11,1.5.12,2.25-.15,1.5-.09,2.25,0,1.5,0,2.25c-.12,3,.13,6,.1,9l-.07,4.5c0,1.5,0,3,.1,4.5,0,.75.07,1.5.08,2.25s-.11,1.5-.07,2.25.1,1.5,0,2.25a13,13,0,0,0-.06,2.25c.08,1.5,0,3,0,4.5s0,3,0,4.5c-.06,3,.19,6,0,9s.22,6,0,9h-.28c-.22-3,.07-6,0-9s.06-6,0-9c0-1.5,0-3-.06-4.5s-.06-3,0-4.5a14.11,14.11,0,0,0-.07-2.25c-.05-.75,0-1.5,0-2.25s-.11-1.5-.08-2.25,0-1.5.07-2.25c0-1.5.09-3,.07-4.5l-.09-4.5c0-3,.19-6,.06-9,0-.75-.11-1.5-.07-2.25s-.16-1.5-.1-2.25.08-1.5.12-2.25,0-1.5,0-2.25C104,110.24,104.2,107.24,104.26,104.24Z"/>
      <path class="cls-27" d="M62.6,10.56c3.58,13.81,7,27.65,10.52,41.48L83.43,93.58c3.54,13.82,6.82,27.71,10.29,41.55l5.19,20.75,2.59,10.39c.84,3.46,1.84,6.89,2.52,10.4-1-3.42-1.78-6.91-2.67-10.36l-2.61-10.38-5.17-20.77c-3.46-13.84-7.1-27.63-10.48-41.49L72.65,52.16C69.21,38.32,65.76,24.47,62.42,10.6Z"/>
      <path class="cls-27" d="M104.74,105.07a1.26,1.26,0,0,1,.42-.49l.48-.4c.32-.27.65-.52,1-.78a19.19,19.19,0,0,1,2-1.5c1.39-.92,2.87-1.69,4.23-2.65,1.2-1.18,2.91-1.63,4.26-2.59.68-.47,1.32-1,2-1.44l1-.69a3.65,3.65,0,0,0,.49-.39,1.44,1.44,0,0,1,.25-.18l.14-.07s.11.11.17.17,0,0,0,0l.06,0-.06,0s0,0,0,0,.13.23.1.21l-.12.11a1.45,1.45,0,0,1-.26.17,3,3,0,0,0-.54.32l-1,.72c-.67.5-1.4.9-2.09,1.36-1.38.92-2.41,2.36-3.95,3-1.39.92-2.64,2-4,3a22,22,0,0,1-2.12,1.31c-.36.21-.72.43-1.08.63l-.55.3a1.21,1.21,0,0,1-.61.22Z"/>
      <path class="cls-27" d="M103.46,105.8c-2.52-.46-5-1.17-7.49-1.72s-5-1.22-7.47-1.82L81,100.46l-7.46-1.85c-5-1.27-10-2.41-15-3.61s-10-2.47-15-3.61l.09-.22c2.84,1.77,5.69,3.51,8.51,5.31s5.65,3.58,8.5,5.32c5.63,3.6,11.25,7.23,17,10.66,2.86,1.74,5.6,3.65,8.45,5.41l8.48,5.34c5.66,3.56,11.31,7.13,17,10.64s11.26,7.21,17,10.68,11.39,7,17,10.64,11.23,7.25,16.91,10.78l17,10.68-.09.14-17-10.68c-5.64-3.59-11.34-7.08-17-10.58s-11.32-7.11-16.95-10.71-11.32-7.1-17-10.67-11.29-7.17-17-10.73l-8.49-5.33c-2.81-1.81-5.73-3.45-8.53-5.28-5.58-3.68-11.28-7.17-17-10.69-2.8-1.82-5.62-3.62-8.47-5.36s-5.65-3.57-8.47-5.37L43,91l.71.19c5,1.27,10,2.45,14.94,3.65S68.6,97.3,73.6,98.46l7.48,1.78,7.46,1.84c2.49.6,5,1.18,7.47,1.81S101,105.05,103.46,105.8Z"/>
      <path class="cls-27" d="M62.06,9.62c.12,6.92.42,13.84.19,20.75,0,1.73,0,3.46,0,5.19s.2,3.46.22,5.19-.29,3.46-.17,5.18-.09,3.46-.11,5.19C62,58,62.41,65,62.35,71.87c0,3.46-.12,6.92-.14,10.38s.06,6.91.15,10.37c0,1.73.12,3.46.14,5.19s-.2,3.46-.14,5.19.17,3.46.08,5.18a40.88,40.88,0,0,0-.11,5.19c.12,3.46-.11,6.92,0,10.38l0,5.18c0,1.73-.08,3.46,0,5.19-.12,6.92.34,13.84,0,20.75s.37,13.84,0,20.75h-.5c-.37-6.91.16-13.83,0-20.75s.15-13.83,0-20.75c0-1.73,0-3.46,0-5.19l0-5.18c.14-3.46-.09-6.92,0-10.38a40.89,40.89,0,0,0-.12-5.19c-.09-1.72.1-3.45.08-5.18s-.19-3.46-.14-5.19.1-3.46.14-5.19c.09-3.46.17-6.91.15-10.37s-.14-6.92-.14-10.38c-.06-6.91.36-13.83.14-20.75,0-1.73-.18-3.46-.1-5.19s-.3-3.45-.18-5.18.16-3.46.22-5.19.06-3.46,0-5.19C61.64,23.46,61.94,16.54,62.06,9.62Z"/>
      <path class="cls-27" d="M61.7,150.28c1.89-1.74,3.62-3.63,5.35-5.52.85-1,1.63-2,2.43-3,.4-.5.82-1,1.24-1.48a4,4,0,0,1,.73-.63,7.43,7.43,0,0,0,.73-.64,134.6,134.6,0,0,0,10.53-11.22c1.69-1.92,3.2-4,5-5.83.9-.91,1.86-1.77,2.8-2.64s1.84-1.79,2.71-2.73l2.63-2.82,2.7-2.74c.9-.91,1.79-1.83,2.68-2.76l1.34-1.38a8,8,0,0,1,1.42-1.3l.08.07a8.85,8.85,0,0,1-1.2,1.51l-1.29,1.43c-.86,1-1.72,1.9-2.56,2.87l-2.56,2.88-2.62,2.81c-.88.93-1.72,1.9-2.54,2.89s-1.6,2-2.45,3c-1.67,2-3.66,3.6-5.46,5.42A132.89,132.89,0,0,0,73,139.73a7.47,7.47,0,0,0-.59.77,4.93,4.93,0,0,1-.58.78c-.45.45-.91.9-1.39,1.33-1,.87-1.92,1.71-2.82,2.63C65.8,147.09,64,149,62.43,151Z"/>
      <path class="cls-27" d="M178.06,175.65l-36.31-7.5-9.07-1.91-4.53-1c-1.51-.31-3-.67-4.5-1.09-6-1.7-12.2-2.07-18.19-3.57-3-.65-6-1.4-9-2.12l-9-2.07c-3-.7-6-1.33-9.07-1.91s-6.14-.83-9.18-1.38-6-1.41-9.06-2S54,150,51,149.19c-6-1.45-12-2.94-18-4.54v-.05c6.1,1,12.19,2.07,18.26,3.2,3.05.53,6.07,1.19,9.07,1.9s6.08,1.13,9.07,1.91,5.94,1.78,9,2.48,6,1.38,9,2l9.1,1.8c3,.57,6.08,1.11,9.1,1.76,6.08,1.08,11.93,3.29,18.06,4.18,1.53.22,3,.51,4.55.85l4.53,1,9.06,2,36.2,8Z"/>
    </g>
  </g>
</svg>
