<svg xmlns="http://www.w3.org/2000/svg" viewBox="0 0 137.56 137.56">
  <defs>
    <style>
      .cls-1 {
        fill: #378193;
      }

      .cls-2 {
        fill: #3eafd4;
      }

      .cls-3 {
        fill: #231815;
      }

      .cls-4 {
        fill: #d6dedf;
      }
    </style>
  </defs>
  <g id="레이어_2" data-name="레이어 2">
    <g id="레이어_1-2" data-name="레이어 1">
      <g>
        <circle class="cls-1" cx="68.78" cy="68.78" r="68.78"/>
        <circle class="cls-2" cx="70.5" cy="70.68" r="64.77"/>
        <path class="cls-3" d="M120.44,101.2c-9.88,12.34-23,18.28-29.23,13.26S87.9,95.38,97.79,83.05a48.21,48.21,0,0,1,13.7-12,23.9,23.9,0,0,1,8-2.91A9.61,9.61,0,0,1,127,69.78C133.28,74.8,130.33,88.87,120.44,101.2Z"/>
        <path class="cls-4" d="M117.08,99.64c-9.19,11.47-20.83,17.39-26,13.24S89.13,96.07,98.31,84.6a49.89,49.89,0,0,1,12.48-11.33,22.64,22.64,0,0,1,7.06-3c2.61-.53,4.86-.21,6.48,1.08C129.51,75.53,126.26,88.18,117.08,99.64Z"/>
        <path class="cls-3" d="M85.58,127.07c-2.4,3-6.54,3.66-9.25,1.49s-3-6.36-.56-9.35a7.31,7.31,0,0,1,3.8-2.53,6.52,6.52,0,0,1,2.59-.19A5.84,5.84,0,0,1,85,117.71C87.73,119.88,88,124.07,85.58,127.07Z"/>
        <path class="cls-4" d="M83.89,126.12c-1.93,2.41-5.19,3-7.26,1.36s-2.19-5-.26-7.39a6.19,6.19,0,0,1,3-2.07,5.18,5.18,0,0,1,2-.2,4.27,4.27,0,0,1,2.22.91C85.71,120.4,85.83,123.7,83.89,126.12Z"/>
      </g>
    </g>
  </g>
</svg>
